<?xml version="1.0" encoding="UTF-8" standalone="no"?>

<svg
   viewBox="0 0 1821 1352.25"
   version="1.1"
   id="svg5"
   xmlns="http://www.w3.org/2000/svg"
>
  <g id="territories">
      <path
         class="territory territory-land"
         d="m 1222,1189.25 c 13,-3 24,-11 35,-18 5,-3 11,-9 16,-10 7,-2 17,2 24,4 11,2 19,1 29,-4 16,-8 27,-29 47,-39 12,-6 23,-4 36,-4 3,0 10,-1 13,-1 22,-6 14,-35 13,-51 -19,3 -33,12 -54,12 -17,0 -18,-5 -29,-7 -1,1 -1,2 -3,2 -3,1 -10,-6 -13,-8 -3,2 -9,7 -12,6 -5,-1 -9,-11 -15,-11 -4,1 -4,4 -14,6 -14,2 -26,2 -40,8 -7,4 -17,12 -22,17 -2,2 -14,16 -15,18 -1,2 -1,6 -1,8 0,8 4,13 6,20 3,6 5,14 6,21 1,9 -4,22 -7,31 z"
         id="territory-ank"
         data-territory="ank" />
      <path
         class="territory territory-land"
         d="m 1469,1043.25 c -8,8 -23,19 -33,22 0,0 3,1 3,1 0,0 2,31 2,31 -1,7 -5,26 -4,31 2,8 9,9 13,15 6,7 5,11 5,19 0,0 51,0 51,0 0,0 12,1 12,1 0,0 10,0 10,0 0,0 95,10 95,10 0,0 12,1 12,1 0,0 8,0 8,0 8,0 22,-2 29,-4 18,-6 39,-25 53,-38 0,0 29,-27 29,-27 0,0 -18,-3 -18,-3 -16,-4 -33,-11 -42,-26 -2,0 -6,1 -8,1 -5,-1 -16,-5 -19,-10 -1,-2 -2,-22 -11,-21 -5,0 -12,11 -15,15 -10,12 -21,26 -38,25 -21,-1 -19,-9 -38,-9 0,0 -14,0 -14,0 0,0 -17,-1 -17,-1 -9,0 -14,2 -23,-1 -16,-7 -33,-27 -42,-32 z"
         id="territory-arm"
         data-territory="arm" />
      <path
         class="territory territory-land"
         d="m 1129,1092.25 c -11,5 -21,-3 -33,7 -9,8 0,17 -7,31 -2,5 -7,9 -4,11 2,3 8,0 16,1 0,0 0,2 0,2 -4,2 -11,8 -13,13 4,-2 6,-3 7,-8 0,0 26,-20 26,-20 0,0 14,-6 14,-6 0,0 19,-4 19,-4 0,0 -16,-12 -16,-12 0,0 -9,-15 -9,-15 z m 83,17 c 0,0 -25,4 -25,4 0,0 -14,4 -14,4 -3,0 -14,1 -11,7 2,2 12,4 16,5 0,0 0,2 0,2 0,0 -13,4 -13,4 0,0 -10,5 -10,5 0,0 -9,3 -9,3 -7,3 -6,8 -19,8 -7,0 -15,-3 -21,2 -4,3 -18,16 -20,21 -1,2 -1,4 0,7 8,-2 17,-11 19,3 0,0 0,5 0,5 4,-3 8,-9 12,-9 4,-1 9,3 12,5 4,3 9,4 14,5 10,1 18,-3 23,-4 6,0 10,3 15,4 6,0 10,-4 17,-4 5,0 7,0 12,1 2,1 6,2 7,1 3,-1 5,-8 5,-11 5,-15 3,-24 -2,-38 0,0 -6,-17 -6,-17 -1,-5 0,-9 -2,-13 z m -68,11 c 0,0 0,1 0,1 0,0 -1,-1 -1,-1 0,0 1,0 1,0 z"
         id="territory-con"
         data-territory="con" />
      <path
         class="territory territory-land"
         d="m 1820,144.25 c 0,0 -28,26 -28,26 0,0 -24,23 -24,23 -41,37 -103,86 -150,116 -29,18 -49,26 -79,41 0,0 -25,14 -25,14 -8,5 -13,8 -22,12 -15,6 -30,7 -46,11 -30,8 -38,17 -58,23 0,0 -44,8 -44,8 -11,3 -16,8 -25,14 -9,5 -25,13 -34,16 -19,6 -34,2 -53,9 -16,7 -26,22 -29,39 -1,7 1,19 -4,25 -10,11 -25,-11 -36,-5 -5,2 -9,10 -12,15 -5,7 -13,18 -19,24 -13,12 -33,11 -50,11 0,13 -5,26 -6,31 0,5 1,8 2,12 0,8 -4,9 -4,20 0,0 2,24 2,24 0,10 0,18 -10,23 -4,2 -9,3 -13,5 0,0 -13,14 -13,14 0,0 -14,12 -14,12 -2,1 -6,4 -7,6 -1,3 1,9 2,12 2,11 3,9 6,18 0,0 5,17 5,17 3,-3 4,-5 8,-8 5,-2 29,-9 36,-11 0,0 75,-19 75,-19 11,-3 32,-8 43,-8 5,0 11,0 16,1 3,0 12,2 15,2 5,-1 11,-7 21,-8 0,0 33,4 33,4 9,0 16,0 21,-8 4,-7 6,-25 17,-25 6,0 16,7 22,10 10,4 15,5 26,5 12,0 13,-5 21,-4 5,1 14,3 18,6 11,7 17,28 30,41 11,11 16,6 24,14 7,9 2,21 13,31 5,4 15,8 21,10 13,6 25,9 38,16 16,9 27,25 38,33 1,-2 1,-6 3,-7 3,-2 5,0 7,0 4,-1 6,-5 8,-8 3,-6 1,-11 5,-17 4,-8 15,-18 22,-25 0,0 13,-19 13,-19 6,-6 14,-10 21,-13 14,-5 32,-11 40,6 3,7 6,21 6,29 0,6 1,12 -3,17 -5,8 -14,7 -18,17 -5,11 5,16 0,23 -5,8 -16,9 -20,20 12,1 22,5 31,13 7,7 6,12 10,14 2,0 5,0 7,0 5,0 7,3 14,1 4,0 10,-4 14,-3 6,1 6,7 6,12 0,11 -1,22 11,28 0,-9 -1,-17 7,-24 3,-2 6,-2 10,-1 5,1 11,7 16,10 5,3 14,4 17,10 2,5 -1,11 -3,15 -7,11 -9,9 -19,12 -2,1 -6,3 -8,3 -2,0 -6,-2 -8,-3 0,11.00001 5,20.00001 11,29.00001 6,-3 13,-13 19,-13 2,-1 4,0 4,2 0,3 -3,6 -3,9 -1,6 3,4 -2,12 0,0 19,8.99999 19,8.99999 0,0 6,8 6,8 0,0 9,34 9,34 0,0 1,-22 1,-22 0,0 0,-45.99999 0,-45.99999 0,0 0,-159.00001 0,-159.00001 0,0 0,-474 0,-474 0,0 0,-138 0,-138 0,0 0,-40 0,-40 0,0 -1,-19 -1,-19 z"
         id="territory-mos"
         data-territory="mos" />
      <path
         class="territory territory-land"
         d="m 1162,925.25 c 3,0 8,2 10,1 2,0 7,-7 9,-9 6,-5 11,-7 18,-8 3,-1 9,-2 12,0 6,2 2,6 -2,7 0,0 -5,1 -5,1 2,2 4,7 6,8 10,8 30,-1 34,-2 4,0 7,3 6,7 0,5 -6,7 -10,10 -5,3 -7,7 -8,13 5,1 16,3 19,7.00001 4,5 -2,20 11,22 2,0 3,0 5,-1 5,-2 11,-12 16,-16 6,-4 14,-3 14,-13.00001 4,-1 5,-1 9,-1 0,0 4,0 4,0 2,0 6,0 7,-2 2,-2 1,-9 -3,-11 -7,-2 -12,6 -17,7 -9,2 -21,-11 -28,-16 -2,-1 -10,-3 -10,-6 -1,-3 3,-4 5,-5 8,-3 13,-5 20,-10 0,0 26,-22 26,-22 0,0 37,-18 37,-18 0,0 15,-10 15,-10 2,-1 5,-3 7,-2 4,2 0,8 -2,10 0,0 -26,20 -26,20 2,3 3,5 6,6 3,0 7,-1 8,3 1,3 0,7 -1,10 0,0 -7,17 -7,17 -1,5 0,12 -5,15 -4,3 -8,0 -14,-1 1,8 5,8 12,11 0,0 12,4 12,4 0,0 17,4 17,4 13,4.00001 23,8.00001 34,15.00001 8,5 15,12 23,15 12,6 25,4 36,11 8,4.99999 18,16.99999 17,26.99999 -1,6 -5,11 -4,14 1,4 13,14 16,16 6,6 17,14 25,17 6,1 9,-1 16,-1 0,0 15,2 15,2 7,0 10,-1 16,-1 17,-1 24,9 39,10 16,1 27,-13 36,-25 4,-6 9,-15 17,-16 9,-1 15,10 16,17 1,2 1,6 2,8 3,5 12,7 17,6 -2,-6 -6,-16 -6,-22 0,-5 3,-5 3,-11 0,-9 -6,-28 2,-34 4,-3 8,-3.99999 12,-4.99999 -3,-6 -9,-3 -15,-4 -5,-1 -8,-3 -12,-6 0,0 -21,-19 -21,-19 -8,-5 -12,-5 -16,-8 0,0 -8,-8.00001 -8,-8.00001 -7,-6 -13,-10 -20,-18 -12,-13 -8,-18 -15,-26 -3,-5 -8,-9 -14,-11 -4,-2 -8,-2 -10,-5 -3,-4 -4,-13 -4,-17 0,0 1,-16 1,-16 0,-8 0,-7 1,-15 -5,-1 -8,-6 -11,-9 0,0 -21,-19 -21,-19 -14,-10 -30,-14 -46,-21 -7,-3 -18,-7 -24,-13 -8,-10 -6,-22 -10,-28 -3,-4 -7,-4 -12,-6 -4,-2 -7,-4 -10,-7 -8,-8 -13,-16 -19,-25 -3,-6 -8,-15 -14,-18 -4,-3 -16,-5 -21,-4 -4,1 -6,3 -13,4 -10,1 -19,-1 -28,-6 -6,-2 -19,-11 -25,-8 -3,1 -4,5 -6,8 -3,7 -4,14 -10,20 -12,9 -35,1 -49,0 -5,0 -18,3 -20,8 -1,2 0,6 1,8 0,4 2,13 2,17 0,0 -5,17 -5,17 -3,20 -5,51 -18,68 -7,9 -20,18 -30,23 0,0 -14,6 -14,6 -4,3 -5,6 -8,10 0,0 -9,13 -9,13 -2,5 -2,7 -6,12 -4,4 -9,9 -14,13 -2,2 -7,5 -8,7 -1,2 2,13 3,17 0,8 -5,23 4,33.00001 5,4 10,2 15,1 3,-1 12,-2 13,-4 2,-1 3,-5.00001 4,-7.00001 1,-4 7,-14 8,-17 0,-5 -4,-6 -5,-13 z"
         id="territory-sev"
         data-territory="sev" />
      <path
         class="territory territory-land"
         d="m 1384,0.25 c 4,5 11,9 12,15 1,4 -1,6 -1,11 1,3 4,10 -2,10 -5,0 -7,-7 -14,-10 -3,6 -5,14 -9,19 -6,6 -10,4 -16,10 -5,6.000001 -4,12.000001 -6,15.000001 -1,3 -3,3 -4,6 -2,3 -3,11 -3,15 -2,5 -4,10.999999 -4,15.999999 1,9 7,17 8,26 -5,-2 -6,-5 -9,-9 -8,-11 -10,-24.999999 -8,-37.999999 2,-6 7,-22 -2,-25 -3,-1 -6,1 -6,4 -2,5 1,8 -1,18 -1,-1 -3,-3 -5,-3 -3,0 -5,3 -6,5 -4,5 -7,10 -10,15.999999 -5,10 -7,17 -9,28 -1,7 2,12 -2,18 -6,12 -18,12 -29,7 -4,-1 -8,-3 -11,-6 -8,-11 14,-16 6,-28 -5,-7 -13,-6 -21,-7 -5,-1 -10,-2 -15,1 9,7 13,13 15,24 1,5 2,14 4,18 2,4 5,3 8,6 3,2 5,5 6,9 1,5 2,19 -3,22 -2,1 -4,1 -6,1 -5,0 -12,-1 -17,3 -3,2 -8,14 -13,20 -3,4 -11,12 -10,17 1,4 6,7 9,10 4,3 6,5 9,9 10,10 14,5 22,8 2,1 7,3 5,6 -2,4 -11,1 -14,0 -8,-1 -14,-1 -22,-1 -9,0 -14,2 -24,-1 -7,-2 -14,-10 -19,-7 -3,2 -3,7 -2,10 1,5 5,11 10,12 5,2 8,-1 14,5 5,6 7,8 1,14 -1,1 -2,3 -4,3 -4,2 -16,-4 -20,-6 -7,-3 -16,-4 -22,-10 -3,-4 -5,-9 -8,-13 -2,-4 -7,-9 -8,-14 -2,-6 1,-15 -4,-20 -2,-3 -7,-3 -12,-6 0,0 -11,-8 -11,-8 -6,-5 -7,-4 -14,-11 -1,-2 -6,-7 -3,-9 3,-4 9,5 16,6 0,0 11,0 11,0 0,0 9,4 9,4 7,1 29,4 36,4 7,0 20,1 26,-2 11,-5 25,-27 22,-40 -1,-3 -12,-16 -14,-18 -9,-7 -23,-10 -34,-13 0,0 -45,-17 -45,-17 -10,-1 -22,2 -29,2 -3,0 -12,-2 -12,-6 0,-3 3,-2 4,-9 -4,-1 -9,-2 -13,1 -6,4 -8,13 -11,20 -2,4 -6,10 -9,14 -2,3 -5,7 -6,10 -1,3 0,8 0,11 3,14 12,16 14,25 0,0 2,24 2,24 1,10 3,20 5,30 4,13 17,45 22,57 7,15 17,30 17,47 0,10 -5,9 -5,23 0,0 1,8 1,8 0,13 -7,26 -14,37 -3,5 -10,15 -7,21 4,5 12,4 17,6 4,1 8,4 11,6 -8,8 -7,4 -15,5 0,0 -12,5 -12,5 -5,2 -7,10 -11,14 -4,3 -8,3 -13,3 0,0 -23,-2 -23,-2 -12,0 -21,3 -31.99998,9 6,12 20.99998,13 32.99998,13 5,0 12,-1 16,0 12,2 13,12 19,20 5,7 10,9 14,14 6,6 8,17 8,25 17,0 36,2 50,-11 9,-9 15,-21 22,-31 4,-5 8,-10 15,-9 6,1 12,6 19,8 3,1 6,1 8,-1 3,-2 3,-10 3,-13 0,-7 1,-13 3,-19 10,-29 34,-38 62,-38 18,0 38,-10 53,-19 12,-7 16,-12 31,-16 0,0 40,-7 40,-7 0,0 53,-21 53,-21 0,0 50,-12 50,-12 9,-4 16,-9 24,-14 0,0 19,-10 19,-10 0,0 59,-29 59,-29 30,-18 59,-38 87,-59 27,-20 52,-41 77,-63 0,0 19,-17 19,-17 0,0 30,-28 30,-28 4,-4 9,-11 15,-12 0,0 0,-141 0,-141 0,0 -437,0 -437,0 z"
         id="territory-stp"
         data-territory="stp" />
      <path
         class="territory territory-land"
         d="m 1820,1072.25 c -2,9 -10,16 -17,21 -17,12 -25,15 -46,12 -1,5 -6,7 -9,10 0,0 -16,15 -16,15 -16,15 -42,39 -63,45 -9,2 -12,1 -21,2 0,0 -8,1 -8,1 0,0 -11,-1 -11,-1 -33,0 -65,-7 -98,-10 -24,-2 -50,-1 -74,-1 -14,0 -23,7 -35,12 -10,5 -15,3 -24,12 -9,9 -8,16 -12,27 -6,13 -11,18 -12,20 0,0 -2,8 -2,8 0,0 -6,13 -6,13 0,0 4,4 4,4 0,0 1,22 1,22 7,1 6,4 6,9 0,0 2,7 2,7 2,9 1,9 1,17 0,0 2,17 2,17 0,0 0,18 0,18 0,0 439,0 439,0 0,0 0,-197 0,-197 0,0 0,-57 0,-57 0,0 -1,-26 -1,-26 z"
         id="territory-syr"
         data-territory="syr" />
      <path
         class="territory territory-land"
         d="m 1073,872.25 c 18,0 28,18 36,31 0,0 7,10 7,10 6,-4 19,-14 23,-20 3,-4 3,-6 6,-10 0,0 15,-23 15,-23 5,-5 9,-6 15,-8 6,-3 13,-7 18,-10 20,-14 22,-30 26,-52 0,0 5,-30 5,-30 2,-11 5,-10 3,-23 0,-3 -2,-13 -4,-15 -1,-2 -6,-2 -8,-3 -8,-1 -15,-1 -23,-1 -11,0 -29,5 -40,8 0,0 -79,20 -79,20 0,0 -18,5 -18,5 -8,2 -16,3 -20,12 -3,9 0,15 -4,27 -1,3 -4,8 -3,11 3,7 19,13 26,19 10,10 19,30 19,44 0,0 0,8 0,8 z"
         id="territory-ukr"
         data-territory="ukr" />
      <path
         class="territory territory-land"
         d="m 988.00002,493.25 c -3,7 -4,12 -1,20 3,11 10,9 13.99998,14 3,3 3,6 3,9 1,8 1,20 -2,27 -2,4 -6.99998,11 -11.99998,9 -7,-2 -17,-24 -28,-22 -5,1 -7,6 -9,10 -4,9 -10,23 -10,32 0,3 0,10 1,13 2,2 6,2 11,9 2,5 3,11 8,14 6,5 13,2 20,12 6,8 6,20 3,29 -1,4 -4,9 -3,13 3,9 16.99998,16 23.99998,22 3,2 5,4 8,7 8,-5 19,-15 26,-22 0,0 8,-9 8,-9 6,-6 12,-5 17,-7 7,-5 6,-15 6,-22 0,-9 -3,-16 -2,-25 1,-5 4,-8 4,-15 0,-6 -3,-8 -2,-15 0,0 4,-14 4,-14 2,-10 3,-25 0,-35 -4,-12 -12,-12 -18,-21 -5,-6 -7,-15 -14,-19 -6,-3 -15,0 -22,0 -6,0 -17,-2 -22,-5 -3.99998,-2 -7.99998,-6 -11.99998,-9 z"
         id="territory-lvn"
         data-territory="lvn" />
      <path
         class="territory territory-land"
         d="m 978.00002,685.25 c -18,25 -57,16 -80,32 -27,19 -21,48 -4,71 2,3 11,13 13,15 4,3 16,5 21,5 8,0 16,-5 22,-10 3,-3 5,-7 8,-8 7,-3 16,6 26,8 14,4 18.99998,-4 26.99998,-6 5,0 9,3 13,5 4,-10 5,-14 6,-25 0,-5 -4,-24 -6,-29 0,0 -5,-10 -5,-10 -2,-7 -2,-14 -7,-20 -5,-7 -12.99998,-10 -19.99998,-15 -5,-4 -8,-10 -14,-13 z"
         id="territory-war"
         data-territory="war" />
      <path
         class="territory territory-land"
         d="m 944.00002,613.25 c 1,8 2,24 -5,29 -4,4 -10,0 -14,4 -2,3 -2,6 -4,9 -1,3 -4,6 -7,8 -7,5 -16,9 -23,2 -3,-3 -3,-5 -3,-9 -3,0 -7,-1 -10,-1 -11,1 -22,8 -32,12 -17,6 -20,8 -38,11 0,0 4,30 4,30 2,8 4,10 5,15 2,6 0,11 3,14 3,3 8,4 11,4 0,0 28,2 28,2 3,0 11,1 13,-1 0,0 7,-13 7,-13 4,-8 11,-14 18,-19 12,-7 31,-10 45,-13 10,-2 20,-4 28,-11 4,-4 7,-10 9,-15 1,-5 2,-7 2,-12 0,0 0,-4 0,-4 0,-6 -1,-12 -6,-15 -5,-3 -9,-1 -16,-7 -10,-9 -6,-16 -15,-20 z"
         id="territory-pru"
         data-territory="pru" />
      <path
         class="territory territory-land"
         d="m 758.00002,760.25 c 0,0 10,29 10,29 0,0 27,-7 27,-7 7,-1 15,-3 22,-1 10,4 17,13 25,19 9,7 11,6 21,9 15,5 25,11 39,-1 0,0 -16,-21 -16,-21 -9,-13 -13,-25 -13,-41 0,0 -36,0 -36,0 0,0 -12,-2 -12,-2 0,0 -8,-3 -8,-3 0,0 -7,5 -7,5 0,0 -10,5 -10,5 0,0 -42,9 -42,9 z"
         id="territory-sil"
         data-territory="sil" />
      <path
         class="territory territory-land"
         d="m 737.00002,763.25 c 0,0 30,-9 30,-9 0,0 32,-6 32,-6 0,0 16,-10 16,-10 0,0 -1,-14 -1,-14 0,0 -6,-15 -6,-15 -2,-9 -3,-22 -3,-31 -6,-1 -12,-2 -17,-6 -2,-1 -5,-4 -4,-7 1,-2 2,-3 3,-4 -1,-1 -2,-2 -4,-3 -5,-1 -19,6 -26,8 -4,1 -10,1 -12,4 0,0 -4,23 -4,23 -2,12 -7,32 -7,44 0,8 0,19 3,26 z"
         id="territory-ber"
         data-territory="ber" />
      <path
         class="territory territory-land"
         d="m 621.00002,741.25 c 19,9 31,7 49,22 6,6 11,9 16,16 2,2 4,6 7,6 4,1 8,-4 11,-6 7,-5 12,-4 21,-9 2,-2 6,-4 6,-6 2,-2 1,-5 0,-7 0,0 -1,-14 -1,-14 0,-5 0,-6 1,-10 0,0 3,-22 3,-22 2,-12 6,-26 6,-38 0,0 -16,0 -16,0 2,-3 7,-9 7,-12 -1,-4 -7,-7 -10,-11 -5,-7 -8,-13 -8,-22 0,0 -15,0 -15,0 -2,0 -6,0 -7,1 -4,3 0,15 0,19 0,3 -2,16 -3,19 -1,2 -2,4 -4,6 -10,9 -15,-11 -27,-3 -4,3 -3,8 -3,13 0,11 -4,13 -7,22 -1,4 -1,9 -4,13 -7,11 -19,9 -22,23 z"
         id="territory-kie"
         data-territory="kie" />
      <path
         class="territory territory-land"
         d="m 620.00002,745.25 c -2,8 -3,13 -7,20 -2,3 -5,8 -5,11 -1,6 7,18 5,27 -2,6 -5,6 -7,10 -3,10 5,25 9,27 4,2 14,-2 17,-5 4,-3 7,-10 10,-14 5,-7 12,-16 20,-20 9,-5 13,-2 20,-5 2,-1 6,-3 7,-5 1,-4 -9,-14 -12,-17 -16,-16 -22,-17 -42,-24 0,0 -15,-5 -15,-5 z"
         id="territory-ruh"
         data-territory="ruh" />
      <path
         class="territory territory-land"
         d="m 618.00002,845.25 c 0,0 4,11 4,11 0,0 -3,14 -3,14 0,0 -2,13 -2,13 10,0 14,0 24,-1 4,-1 12,-3 16,-3 6,1 9,5 13,6 3,2 7,0 11,2 4,2 6,5 11,6 0,0 25,-2 25,-2 13,0 18,0 31,3 0,-4 -2,-10 0,-14 2,-6 6,-6 10,-8 7,-4 6,-7 15,-8 -1,-6 -4,-10 -8,-15 0,0 -19,-23 -19,-23 -6,-8 -10,-16 -1,-25 2,-1 5,-3 7,-5 4,-2 8,-3 12,-5 0,0 -9,-30 -9,-30 -4,1 -18,6 -22,8 0,0 -11,6 -11,6 -5,3 -11,3 -16,7 -8,5 -13,12 -21,16 -11,6 -16,1 -28,11 -11,8 -14,20 -22,28 -5,5 -11,5 -17,8 z"
         id="territory-mun"
         data-territory="mun" />
      <path
         class="territory territory-land"
         d="m 1075,878.25 c -1,6 -1,15 -5,20 -4,6 -13,7 -14,13 -1,6 5,11 8,15 10,10 21,18 14,33.00001 -5,9 -15,13 -24,16 0,0 -53,13 -53,13 -9.99998,4 -22.99998,14.99999 -15.99998,26.99999 2,2 5,3 7,5 4,2 4,5 7,6 3.99998,2 24.99998,4 29.99998,4 11,0 24,1 35,-1 0,0 21,-7 21,-7 16,-3 36,-3 52,2 0,-6 2,-22 4,-26.99999 3,-5 9,-9 12,-14 2,-4 2,-8 2,-13 -8,1 -21,6 -28,3 -8,-5 -12,-18.00001 -12,-26.00001 0,0 1,-12 1,-12 0,-14 -4,-17 -11,-28 -8,-13 -14,-25 -30,-29 z"
         id="territory-rum"
         data-territory="rum" />
      <path
         class="territory territory-land"
         d="m 986.00002,1024.25 c -1,6 -3,11 -1,17 2,7 9,15 9,21 1,8 -7,7 -6,18 3,13 13.99998,27 -1,36 6,8 10,6 18.99998,3 0,0 16,-6 16,-6 12,-4 20,-6 25,9 1,4 1,6 1,10 0,0 0,4 0,4 0,0 19,0 19,0 3,0 7,2 10,0 2,-1 3,-3 4,-5 9,-13 -2,-24 10,-36 13,-12 23,-6 35,-8 0,0 -8,-14 -8,-14 -1,-3 1,-7 2,-10 3,-9 1,-15 4,-20 5,-8 9,-2 12,-12 -14,-7 -39,-5 -54,-2 -8,2 -11,5 -21,7 0,0 -21,1 -21,1 0,0 -13,-1 -13,-1 -7,0 -22,-1 -27.99998,-3 -8,-2 -6,-6 -13,-9 z"
         id="territory-bul"
         data-territory="bul" />
      <path
         class="territory territory-land"
         d="m 953.00002,1210.25 c 0,0 0,2 0,2 -2,1 -6,2 -7,4 -2,4 4,12 7,13 7,2 29,-4 33,-4 3,1 5,2 8,3 4,2 10.99998,4 9.99998,10 -1,3 -3,5 -5.99998,5 0,0 -9,-5 -9,-5 -5,-2 -13,-4 -18,-2 0,0 -7,2 -7,2 -4,1 -6,1 -8,3 -3,2 -2,6 0,9 3,5 7,8 9,14 0,0 5,20 5,20 1,-1 3,-4 4,-5 9,-6 13,13 15,17 2,-3 4,-10 8,-10 2.99998,0 3.99998,3 9.99998,4 -1,-8 -5,-17 -7.99998,-24 -2,-3 -4,-6 0,-9 4.99998,-4 12.99998,5 15.99998,0 3,-3 -5,-6 -6,-10 -1,-4 2,-7 6,-7 6,0 10,4 15,6 0,0 -1,-7 -1,-7 -1,-5 1,-7 -3,-11 -5,-5 -25,-8 -28.99998,-15 -3,-4 0,-6 0,-9 1,-3 -1,-5 -1,-7 1,-7 9.99998,-4 13.99998,-3 -4,-11 -16.99998,-19 -19.99998,-31 -2,-9 6,-13 9,-12 2.99998,2 0.99998,5 3.99998,9 2,4 7,6 11,8 0,0 -2,-7 -2,-7 0,0 16,8 16,8 0,0 -8,-13 -8,-13 0,0 11,1 11,1 -2,-2 -7,-8 -7,-10 -1,-3 3,-4 5,-5 6,-2 4,-4 12,-4 0,-6 2,-17 -5,-21 -4,-1 -16,4 -20,5 0,0 -30.99998,11 -30.99998,11 0,0 -21,5 -21,5 -2,1 -7,2 -8,3 -3,2 -2,7 -2,10 0,5 -2,9 -5,13 -5,5 -10,6 -13,10 -2,2 -3,4 -4,6 -2,3 -4,5 -5,8 -2,8 5,16 11,19 5,3 5,-1 15,3 z m 52.99998,-3 c 3,4 14,14 18,17 3,1 6,2 9,2 0,-11 -6,-8 -13,-12 -6,-4 -6,-7 -14,-7 z"
         id="territory-gre"
         data-territory="gre" />
      <path
         class="territory territory-land"
         d="m 1434,1113.25 c -11,11 -21,8 -36,8 -16,0 -27,4 -39,15 -15,13 -24,29 -45,33 -3,0 -6,1 -9,1 -9,-1 -24,-7 -32,-5 -5,1 -10,6 -14,8 -10,7 -24,17 -36,19 -7,2 -16,-3 -24,-2 -6,0 -10,3 -15,3 -7,0 -10,-3 -15,-3 -5,-1 -9,2 -13,3 0,0 -9,0 -9,0 -7,1 -12,0 -18,-4 -3,-2 -8,-6 -12,-6 -3,1 -8,7 -8,10 0,3 2,5 2,8 1,3 -1,5 -2,8 0,4 1,6 0,9 0,3 -4,6 -6,8 7,2 16,5 17,13 0,5 -2,3 1,14 0,0 8,-1 8,-1 2,7 2,6 -1,13 0,0 19,-4 19,-4 2,0 5,1 6,3 0,3 -5,9 -6,12 6,-2 6,-4 10,-5 4,-1 7,1 11,1 2,1 5,0 7,1 4,2 6,6 8,9 4,3 10,5 15,5 4,0 16,-4 18,-7 3,-5 0,-20 14,-23 11,-1 28,9 37,14 5,3 9,6 15,6 9,0 28,-5 34,-11 6,-6 10,-17 17,-21 9,-5 17,5 23,2 7,-4 6,-17 17,-14 4,-6 8,-14 11,-20 4,-13 2,-19 17,-30 8,-5 11,-5 19,-8 0,0 18,-8 18,-8 4,-2 12,-3 14,-7 3,-13 -13,-20 -17,-27 -3,-5 0,-15 -1,-20 z"
         id="territory-smy"
         data-territory="smy" />
      <path
         class="territory territory-land"
         d="m 947.00002,1141.25 c -13,-3 -12,-8 -13,-19 -2,-13 1,-26 -11,-35 -2,-1 -5,-3 -7,-4 -6,-1 -17,6 -17,15 -1,7 9,8 11,17 1,8 -5,24 -5,36 0,3 0,8 1,11 1,4 13,15 17,16 5,1 3,-4 8,-9 4,-4 9,-5 12,-8 6,-5 5,-13 4,-20 z"
         id="territory-alb"
         data-territory="alb" />
      <path
         class="territory territory-land"
         d="m 987.00002,1126.25 c -2,-3 -8,-8 -6,-13 2,-3 6,-3 7,-8 1,-6 -6,-17 -6,-26 0,-3 0,-6 1,-9 2,-3 5,-5 5,-9 -1,-5 -6,-10 -9,-18 -3,-9 0,-10 0,-18 0,-4 0,-15 -4,-17 -1,-1 -4,-1 -6,-1 0,0 -27,-2 -27,-2 -7,-1 -9,-5 -13,-4 -3,0 -6,3 -10,5 -6,2 -10,-5 -14,0 -1,0 -3,3 -3,4 -4,9 3,11 3,19 -1,4 -3,8 -4,12 -2,6 -2,16 1,22 6,11 22,15 30,24 6,7 6,12 7,21 0,0 1,9 1,9 0,4 -1,11 2,15 2,2 7,2 10,2 11,0 20,-7 35,-8 z"
         id="territory-ser"
         data-territory="ser" />
      <path
         class="territory territory-land"
         d="m 919.00002,854.25 c 0,2 0,4 -1,6 -2,6 -7,3 -11,4 -3,1 -5,2 -7,4 -10,9 -10,18 -17,26 -6,6 -11,7 -16,11 -4,3 -9,9 -13,13 -4,4 -9,7 -9,13 0,0 1,7 1,7 2,11 6,19 15,26.00001 6,4 12,5 16,9 9,7 9,26 24,25 0,0 8,-2 8,-2 2,1 4,3 6,3 6,1.99999 8,-5 15,-5 4,1 7,4 12,5 7,0.99999 11,0.99999 18,0.99999 0,0 7,1 7,1 12,1 14,-5.99999 22,-12.99999 5,-3 9,-6 14.99998,-7 0,0 52,-13 52,-13 10,-4 18,-8 17,-20.00001 -1,-10 -16,-19 -22,-28 0,0 -4,-8 -4,-8 0,0 -15,-22 -15,-22 -4,-4 -7,-3 -13,-9 -8,-9 -13,-17 -23.99998,-23 -10,-5 -15,-2 -24,-5 -7,-2 -11,-7 -19,-7 -10,0 -23,6 -33,8 z"
         id="territory-bud"
         data-territory="bud" />
      <path
         class="territory territory-land"
         d="m 881.00002,822.25 c 0,0 2,18 2,18 9,0 13,0 21,3 6,3 9,7 14,7 3,0 8,-2 11,-3 8,-2 15,-4 24,-4 9,0 11,5 19,7 8,2 15,-1 27,6 10.99998,7 14.99998,15 22.99998,23 5,5 8,4 14,11 5,6 8,13 14,18 6,-10 14,-9 17,-17 1,-4 0,-19 0,-24 0,-12 -7,-32 -15,-41 -5,-5 -14,-8 -20,-13 -5,-3 -14,-13 -18,-14 -7,-1 -11,6 -22.99998,7 -7,0 -13,-3 -19,-6 -2,-1 -8,-4 -11,-4 -3,0 -6,5 -8,7 -4,4 -10,7 -15,10 -6,2 -10,2 -16,1 -3,0 -11,-2 -13,-2 -3,1 -6,4 -11,7 -4,2 -12,3 -17,3 z"
         id="territory-gal"
         data-territory="gal" />
      <path
         class="territory territory-land"
         d="m 915.00002,861.25 c 0,-2 1,-5 0,-7 -1,-1 -4,-3 -6,-4 -7,-4 -12,-6 -20,-6 0,0 -17,1 -17,1 -7,-1 -5,-4 -17,-4 0,0 -12,2 -12,2 -5,0 -12,-5 -20,1 -5,5 -9,12 -13,18 -2,5 -7,12 -9,17 -2,7 -1,24 2,31 1,3 2,5 4,7 3,5 8,15 14,16 4,0 8,-4 12,-6 0,0 9,-2 9,-2 8,-4 15,-16 21,-22 7,-6 13,-5 19,-14 3,-4 4,-7 6,-11 3,-5 11,-16 17,-17 3,-1 7,0 10,0 z"
         id="territory-vie"
         data-territory="vie" />
      <path
         class="territory territory-land"
         d="m 879.00002,841.25 c 0,0 -2,-19 -2,-19 0,0 4,0 4,0 0,0 -8,-2 -8,-2 0,0 -12,-5 -12,-5 -7,-2 -10,-2 -17,-6 -12,-7 -23,-25 -38,-23 -9,2 -37,9 -45,13 -4,2 -11,5 -13,9 -3,5 0,10 3,14 0,0 24,30 24,30 2,4 4,12 9,13 4,1 9,1 13,1 2,0 5,1 6,0 3,-1 6,-8 7,-10 5,-8 13,-20 24,-19 4,1 6,2 10,2 4,0 7,-2 14,-2 7,0 9,3 13,4 2,1 6,0 8,0 z"
         id="territory-boh"
         data-territory="boh" />
      <path
         class="territory territory-land"
         d="m 673.00002,892.25 c 3,18 14,19 19,31 4,10 -2,11 -2,24 0,7 3,15.00001 11,13.00001 5,0 12,-5.00001 14,-10.00001 1,-3 0,-6 3,-10 6,-6 16,-7 24,-7 3,0 13,0 15,-1 2,-1 3,-3 5,-5 3,-2 6,-3 9,-3 4,-1 8,-1 12,0 3,0 6,1 9,0 4,-2 7,-11 6,-15 -1,-19 -5,-20 3,-39 -9,0 -22,-3 -30,1 -3,1 -6,4 -9,6 -2,1 -6,2 -7,4 -5,4 5,16 -5,19 -2,1 -6,0 -8,-1 -5,-1 -8,-1 -13,-1 0,0 -21,0 -21,0 -6,0 -13,2 -19,1 -7,-1 -6,-6 -16,-7 z"
         id="territory-tyr"
         data-territory="tyr" />
      <path
         class="territory territory-land"
         d="m 801.00002,916.25 c -2,5 -5,11 -10,12 -6,1 -25,-6 -29,6 2,1 4,3 6,5 3,6 -1,20.00001 -3,26.00001 -1,5 1,4 -2,12 -1,5 -3,16 4,17 3,1 6,-4 7,-6 4,-7 4,-10 13,-9 0,3 0,5 -1,8 -2,6 -6,8 -2,18.99999 4,12 16,18 25,26 5,5 7,7 13,12 0,0 23,15 23,15 0,0 17,14 17,14 0,0 17,12 17,12 5,3 9,8 14,10 2,-10 7,-13 15,-17 -9,-10 -16,-14 -15,-29 0,-10 4,-14 5,-19 0,-5 -3,-8 -4,-13 0,-5 3,-10 4,-15 -5,-2 -9,-2.99999 -12,-7.99999 -4,-5 -5,-13 -10,-18 -5,-4 -10,-3 -19,-11 -12,-9.00001 -13,-21.00001 -16,-35.00001 -4,0 -6,0 -9,2 -3,1 -7,5 -11,5 -9,-1 -13,-14 -20,-21 z"
         id="territory-tri"
         data-territory="tri" />
      <path
         class="territory territory-land"
         d="m 979.00002,265.25 c 9,3 22.99998,15 18,25 0,0 -10,13 -10,13 0,0 -14,22 -14,22 0,0 -22,27 -22,27 -5,7 -14,17 -13,26 0,0 2,9 2,9 0,0 1,10 1,10 0,0 4,14 4,14 0,7 -5,14 -5,22 0,4 0,10 4,14 2,2 5,2 8,4 0,0 9,5 9,5 0,0 7,2 7,2 5,2 6,6 11,7 5,0 19,-4 23.99998,-5 0,0 33,-13 33,-13 6,-2 20,-5 24,-8 6,-3 9,-9 13,-15 7,-11 15,-27 14,-40 0,-4 -1,-6 -1,-10 1,-10 6,-12 6,-21 -2,-16 -11,-30 -18,-45 -7,-15 -16,-40 -21,-56 -3,-10 -5,-22 -6,-33 0,-5 -1,-18 -2,-22 -1,-5 -6,-8 -10,-15 -3,-7 -5,-16 -5,-24 -4,3 -8,1 -8,-4 -1,-4 3,-11 3,-17 -1,-11 -19,-21 -27.99998,-13 -3,3 -3,9 -4,13 -2,11 -4,18 -16,20 -8,2 -22,-1 -30,-4 0,0 -10,-5 -10,-5 -4,-1 -7,0 -8,4 -1,5 3,7 6,10 8,6 16,13 22,21 12,16 14,33 18,52 0,0 4,30 4,30 z"
         id="territory-fin"
         data-territory="fin" />
      <path
         class="territory territory-land"
         d="m 926.00002,163.25 c 0,0 -2,10 -2,10 -6,1 -8,2 -14,3 -3,0 -8,0 -11,1 -3,3 0,6 -3,10 -3,4 -7,0 -11,5 -5,6 -12,28 -16,36 -3,6 -7,13 -12,19 -4,6 -7,8 -11,15 0,0 -5,19 -5,19 0,0 -11,22 -11,22 0,0 -4,16 -4,16 -5,10 -13,5 -20,11 -2,3 -4,8 -5,12 -4,12 -4,23 -4,35 0,0 1,15 1,15 0,0 0,14 0,14 0,5 0,8 -2,12 -4,8 -7,6 -7,17 0,13 -4,26 -7,39 -3,8 -6,27 -14,30 -3,1 -6,0 -9,0 0,10 3,14 5,24 0,0 7,28 7,28 2,5 8,20 9,24 0,5 -4,14 -3,19 0,0 3,12 3,12 2,8 -2,17 11,15 12,-1 10,-7 16,-15 5,-6 10,-8 17,-8 4,0 11,1 15,-1 4,-3 7,-9 8,-13 6,-14 5,-23 6,-37 0,0 5,-23 5,-23 0,-2 0,-5 -1,-7 -1,-1 -3,-3 -2,-5 0,-2 3,-3 5,-3 5,-1 10,-2 15,-5 9,-4 13,-10 17,-19 3,-6 5,-8 5,-15 -1,-15 -16,-23 -21,-30 -3,-4 -4,-10 -4,-15 0,-13 4,-34 9,-46 3,-6 12,-17 16,-22 13,-14 29,-20 40,-39 5,-9 -1,-12 0,-21 1,-13 10,-33 23,-38 4,-1 8,-1 12,-1 0,0 -3,-21 -3,-21 -2,-15 -6,-37 -13,-50 -7,-12 -19,-22 -30,-29 z"
         id="territory-swe"
         data-territory="swe" />
      <path
         class="territory territory-land"
         d="m 996.00002,88.250001 c -4,3 -5,7 -6,11 -3,7.999999 -4,12.999999 -10,17.999999 -2,-9 1,-12 1,-19.999999 0,-2 0,-5 -2,-6 -3,-1 -6,1 -8,2 -7,6.999999 -6,6.999999 -15,11.999999 0,0 -25,18 -25,18 -5,2 -10,4 -15,5 -3,1 -7,1 -10,2 -4,2 -4,7 -8,10 -3,2 -5,1 -7,2 -4,2 -6,7 -7,11 2,2 4,4 3,7 -1,2 -6,7 -8,9 0,0 -18,23 -18,23 0,0 -18,27 -18,27 0,0 -21,21 -21,21 -5,7 -9,16 -14,24 -5,8 -15,25 -18,33 0,0 -1,11 -1,11 -8,-3 -11,0 -17,5 -3,3 -7,8 -9,11 -1,3 -1,7 -4,9 -3,2 -9,1 -14,4 -6,3 -10,9 -14,10 -4,1 -5,-1 -8,-1 -4,-1 -7,1 -9,5 0,0 4,2 4,2 -5,6 -8,4 -15,7 1,2 3,6 2,7 -2,3 -7,-1 -13,0 -6,2 -12,9 -15,14 -8,11 -10,21 -12,34 -1,3 -2,11 -2,14 2,5 7,6 9,10 2,5 -3,6 -7,7 0,0 4,3 4,3 8,9 -8,10 -10,13 -1,1 -1,5 -1,7 4,-1 18,-5 19,2 0,4 -5,7 -7,9 -7,5 -13,10 -8,19 2,3 5,7 8,9 2,2 5,3 8,5 19,9 33,-9 49,-16 5,-3 10,-4 15,-8 2,-1 6,-6 9,-6 4,0 7,10 8,14 3,0 7,2 9,-1 2,-3 4,-12 5,-15 3,-10 9,-30 9,-40 0,-4 0,-10 1,-14 2,-5 6,-7 8,-13 1,-5 1,-11 1,-16 0,0 -2,-27 -2,-27 0,-10 3,-30 8,-39 2,-5 6,-9 11,-11 5,-2 9,-1 11,-5 0,0 4,-15 4,-15 0,0 11,-23 11,-23 0,0 6,-19 6,-19 3,-7 10,-13 15,-20 9,-14 12,-28 19,-42 4,-8 7,-14 16,-15 -1,-14 17,-13 27,-13 1,-4 2,-8 3,-12 1,-6 4,-14 11,-16 5,-1 10,3 15,5 7,3 16,5 23,5 4,0 9,0 12,-3 7,-6 1,-25 15,-32 2,-1 3.99998,-1 5.99998,-1 12,-1 27,9 29,22 0,5 -3,12 -4,18 11,-5 17,-22 21,-33 -2,1 -8,3 -10,2 -4,0 -12,-7 -14,-11 5,-1 17,-3 19,-7 5,-7.999999 -12,-12.999999 -17,-12.999999 -7,1 -6,8.999999 -10,10.999999 -3,1 -4,-2 -5,-4 0,-3.999999 4,-17.999999 -4,-15.999999 -7,1 -3,18.999999 -8.99998,20.999999 -4,1 -4,-5 -4,-6.999999 0,0 1,-10 1,-10 z"
         id="territory-nwy"
         data-territory="nwy" />
      <path
         class="territory territory-land"
         d="m 737.00002,541.25 c -6,4 -16,9 -22,12 -5,1 -13,3 -17,6 -4,3 -5,8 -6,12 -2,8 -6,23 -5,31 2,8 5,7 5,19 5,0 18,0 22,2 3,-4 3,-9 4,-14 2,-5 7,-10 10,-14 2,-2 4,-3 6,-4 2,0 6,2 7,-3 0,-6 -10,-8 -9,-16 0,-4 4,-9 6,-13 3,-6 3,-13 -1,-18 z m 7,70 c 5,12 5,10 13,19 3,4 3,5 8,8 0,0 2,-9 2,-9 2,-2 5,-4 5,-7 1,-2 -1,-6 -2,-9 -2,-6 0,-11 -8,-13 -1,0 -5,0 -6,0 -4,1 -3,5 -12,11 z m -2,26 c -1,1 -1,3 -1,4 -1,10 16,7 9,-1 -1,0 -2,-1 -3,-1 -2,-1 -3,-2 -5,-2 z"
         id="territory-den"
         data-territory="den" />
      <path
         class="territory territory-land"
         d="m 566,731.25 c 10,11 23.00002,8 31.00002,16 5,6 1,10 5,21 0,0 2,0 2,0 3,-6 7,-12 9,-19 1,-6 2,-13 5,-18 4,-6 14,-9 19,-14 2,-3 2,-9 4,-13 4,-13 7,-12 7,-29 0,0 -27,-1 -27,-1 -8,1 -22,12 -27,17 -10,10 -6,24 -16.00002,34 -4,3 -8,4 -12,6 z"
         id="territory-hol"
         data-territory="hol" />
      <path
         class="territory territory-land"
         d="m 513,756.25 c 0,0 32,19 32,19 13,8 14,11 30,19 5.00002,3 21.00002,11 27.00002,11 5,-1 4,-8 3,-12 -2,-14 -9,-23 -11,-28 -2,-6 0,-11 -3,-14 -2,-3 -8,-4 -11,-5 0,0 -7.00002,-3 -7.00002,-3 -6,-3 -9,-4 -14,-10 -7,2 -16,4 -23,5 -5,1 -12,1 -16,4 -4,4 -5,9 -7,14 z"
         id="territory-bel"
         data-territory="bel" />
      <path
         class="territory territory-impassable"
         d="m 576,927.25 c 8.00002,2 13.00002,-6 20.00002,-3 11,4 3,15 16,14 8,-2 11,-5 20,-1 8,2 12,9 17,8 5,0 6,-7 14,-8 5,-1 18,2 21,-1 4,-2 4,-10 2,-13 -1,-1 -3,-4 -4,-5 -4,-4 -7,-7 -10,-12 -6,-11 -5,-20 -21,-20 0,0 -26,2 -26,2 -4,0 -9,0 -13,2 -3,1 -17,16 -21,20 0,0 -7,7 -7,7 -4,4 -6.00002,3 -8.00002,10 z"
         id="territory-swi"
         data-territory="swi" />
      <path
         class="territory territory-land"
         d="m 755.00002,1096.25 c 2,-5 3,-6 7,-11 2,-2 5,-5 5,-8 0,-2 -4,-9 -5,-12 -5,-12 -2,-18 -13,-30 -10,-11 -24,-17 -23,-34 0,-7.99999 4,-7.99999 5,-11.99999 1,-4 -5,-9 2,-14 3,-2 14,-7 17,-8 3,-1 7,-1 9,-3 1,-2 3,-14.00001 4,-17.00001 0,-2 0,-4 -2,-5 -2,-2 -13,-3 -16,-3 -5,0 -18,1 -21,5 -2,2 -2,4 -3,7 -5,8.00001 -13,17.00001 -23,16.00001 -6,-1 -8,-6 -12,-6 -2,0 -5,3 -7,5 -4,5 -8,12 -9,19 0,7 7,14 12,17.99999 7,6 13,8 19,12 9,6 17,15 23,23 8,11 11,18 16,31 0,0 3,16 3,16 1,4 8,9 12,11 z"
         id="territory-ven"
         data-territory="ven" />
      <path
         class="territory territory-land"
         d="m 602.00002,939.25 c -1,3 -3,6 -2,10 1,4 5,6 4,11.00001 -1,3 -5,7 -5,11 -1,5 3,10 4,15 1,7 -5,14.99999 1,22.99999 1,2 3,4 5,5 4,2 12,-2 15,-5 6,-5 13,-10.99999 22,-9.99999 8,0.99999 12,7.99999 21,11.99999 2,-3 6,-8 5,-11 0,-3.99999 -5,-5.99999 -5,-13.99999 0,-12 9,-23 18,-30.00001 0,0 -1,-12 -1,-12 0,0 -20,-3 -20,-3 -7,1 -6,13 -15,11 -7,-1 -13,-11 -21,-12 -9,-1 -16,10 -26,-1 z"
         id="territory-pie"
         data-territory="pie" />
      <path
         class="territory territory-land"
         d="m 676.00002,1003.25 c -1,2 -5,7 -5,10 0,3 2,6 3,13 1,7 1,14 2,20 4,11 13,24 21,32 0,0 15,-14 15,-14 0,0 18,-10 18,-10 -5,-9 -14,-22 -21,-29 -10,-9 -12,-8 -22,-14 0,0 -11,-8 -11,-8 z"
         id="territory-tus"
         data-territory="tus" />
      <path
         class="territory territory-land"
         d="m 771.00002,1116.25 c 0,0 -22,-20 -22,-20 0,0 -9,-9 -9,-9 0,0 -3,-13 -3,-13 0,0 -5,-16 -5,-16 -9,2 -18,8 -25,13 -2,3 -6,6 -6,10 0,5 8,12 11,16 7,8 12,18 22,23 5,2 9,1 14,2 6,1 8,4 11,3 0,0 12,-9 12,-9 z"
         id="territory-rom"
         data-territory="rom" />
      <path
         class="territory territory-land"
         d="m 770.00002,1081.25 c -4,4 -12,11 -12,16 0,5 7,9 9,11 0,0 22,17 22,17 5,4 14,14 17,20 3,6 2,10 5,14 2,3 15,10 19,11 2,-3 6,-11 9,-13 1,-2 2,-3 5,-2 0,0 6,5 6,5 5,4 11,8 17,11 3,1 8,5 10,2 2,-3 0,-9 -2,-12 -3,-5 -16,-13 -22,-17 -11,-7 -26,-16 -34,-25 -2,-2 -3,-4 -4,-7 0,-2 1,-5 -1,-7 -1,-1 -6,-1 -8,-1 -5,-1 -9,-2 -13,-4 -11,-5 -15,-13 -23,-19 z"
         id="territory-apu"
         data-territory="apu" />
      <path
         class="territory territory-land"
         d="m 827.00002,1173.25 c -5,-3 -16,-9 -20,-13 -3,-4 -2,-9 -4,-14 -3,-7 -13,-16 -19,-21 -4,-3 -8,-6 -13,-4 -4,1 -11,7 -11,11 0,3 2,7 4,9 0,2 2,5 3,6 3,4 10,0 15,4 4,3 2,7 7,14 5,6 13,10 17,17 2,3 9,20 9,24 1,2 1,4 0,6 0,2 -8,15 -9,17 -3,3 -7,8 -4,13 3,4 8,2 12,-1 3,-3 8,-11 9,-16 1,-3 2,-8 4,-11 3,-4 8,-2 10,-4 3,-2 3,-7 3,-10 -1,-13 -12,-11 -14,-19 -1,-2 0,-6 1,-8 z"
         id="territory-nap"
         data-territory="nap" />
      <path
         class="territory territory-land"
         d="m 571,800.25 c -4,10 -14,33 -22,40 -4,3 -6,3 -9,6 0,0 -9,7 -9,7 0,0 -8,5 -8,5 -4,3 -5,6 -8,8 -4,3 -7,2 -10,5 -5,6 -4,12 -6,18 -2,9 -9,19 -18,22 0,4 1,7 5,10 4,3 11,2 14,7 2,4 -1,10 -2,15 0,10 13,27.00001 24,20.00001 7,-4 11,-18.00001 13,-26.00001 0,-4 -1,-12 3,-14 3,-2 6,-1 9,0 5,2 10,3 15,3 2,0 6,0 8,-1 0,0 13.00002,-14 13.00002,-14 6,-6 22,-21 26,-28 2,-4 2,-9 4,-14 0,0 3,-10 3,-10 0,-6 -6,-15 -10,-20 -6,-11 -8,-16 -6,-28 0,0 -29.00002,-11 -29.00002,-11 z"
         id="territory-bur"
         data-territory="bur" />
      <path
         class="territory territory-land"
         d="m 539,925.25 c 0,12 -2,22 -8,33.00001 -3,5 -6,9 -12,10 -6,1 -9,-2 -14,-4 -3,4 -7,8 -12,9 -4,2 -13,0 -18,5 -3,2 -7,11 -10,15 0,0 -17,23.99999 -17,23.99999 4,5 18,13 24,16 3,1 8,3 11,3 5,-1 1,-7 5,-15 3,-7 13,-14 21,-15 10,-1 14,6 22,8 5,1 10,-1 15,2 6,5 8,16 20,17 13.00002,2 23.00002,-12 35.00002,-15 -2,-7 -6,-8 -6,-17 0,0 1,-14.99999 1,-14.99999 -1,-4 -4,-8 -4,-14 0,-7 6,-10 5,-14 0,-3.00001 -4,-6.00001 -5,-10.00001 0,-6 6,-11 4,-15 -1,-3 -6,-2 -9,-1 -8,2 -11.00002,5 -16.00002,-3 -13,3 -20,-2 -32,-4 z"
         id="territory-mar"
         data-territory="mar" />
      <path
         class="territory territory-land"
         d="m 409,883.25 c 0,0 0,21 0,21 0,0 3,7 3,7 0,0 -5,-2 -5,-2 -3,4 -8,13 -8,18 -1,3 0,5 0,8 -1,3 -10,21 -12,24.00001 -2,4 -5,7 -9,11 -2,1 -4,3 -4,6 1,4 12,14 16,17 8,5 19,11.99999 28,14.99999 0,0 13,2 13,2 4,1 10,4 14,6 0,0 17,-23.99999 17,-23.99999 3,-5 7,-14 12,-18 6,-4 12,-2 19,-4 4,-2 7,-5 10,-8 -3,-5.00001 -7,-9.00001 -8,-15.00001 -1,-6 2,-12 3,-18 -5,-2 -12,-3 -16,-6 -4,-4 -3,-8 -7,-11 -2,-1 -7,-2 -14,-7 -5,-4 -8,-10 -13,-13 -7,-4 -30,-8 -39,-9 z"
         id="territory-gas"
         data-territory="gas" />
      <path
         class="territory territory-land"
         d="m 509,761.25 c -4,4 -8,8 -13,10 -4,1 -6,1 -10,1 -4,1 -8,3 -11,5 0,0 0,2 0,2 0,0 4,2 4,2 0,0 0,2 0,2 -8,2 -11,1 -14,2 -3,1 -5,15 -6,19 12,0 26,1 37,-2 7,-1 11,-5 17,-5 6,-1 13,3 18,5 16,6 10,1 30,12 0,0 7,-17 7,-17 -11,-5 -15,-10 -25,-16 0,0 -34,-20 -34,-20 z"
         id="territory-pic"
         data-territory="pic" />
      <path
         class="territory territory-land"
         d="m 459,805.25 c -4,10 -1,23 -1,34 0,21 -2,32 -6,52 4,3 4,5 7,8 5,5 14,10 21,8 8,-1 13,-10 15,-17 2,-7 1,-13 6,-20 5,-6 8,-4 13,-7 0,0 6,-7 6,-7 0,0 10,-6 10,-6 0,0 8,-7 8,-7 4,-3 6,-3 10,-6 3,-4 9,-15 11,-20 -16,-9 -14,-6 -28,-11 -5,-2 -13,-6 -18,-6 -6,1 -9,4 -14,5 -8,3 -17,2 -25,2 -5,0 -11,1 -15,-2 z"
         id="territory-par"
         data-territory="par" />
      <path
         class="territory territory-land"
         d="m 429,761.25 c 0,0 2,16 2,16 0,0 -2,14 -2,14 0,0 2,10 2,10 -7,-1 -6,-2 -12,-5 0,0 -20,-8 -20,-8 -4,-2 -6,-6 -9,-7 -3,-1 -6,0 -10,0 -6,-1 -18,-3 -23,2 -2,1 -3,4 -4,7 -2,2 -5,4 -5,8 2,7 12,6 17,9 6,3 19,15 24,20 4,5 2,6 4,9 1,2 3,4 4,8 2,5 0,8 0,12 1,6 6,17 11,21 3,3 9,4 13,4 0,0 28,7 28,7 2,-10 5,-27 5,-37 0,0 0,-17 0,-17 0,0 -1,-10 -1,-10 0,-17 4,-25 7,-41 -6,-2 -11,-4 -15,-8 -5,-5 -3,-9 -6,-11 -1,-2 -7,-3 -10,-3 z m -78,32 c 0,0 0,1 0,1 0,0 -1,-1 -1,-1 0,0 1,0 1,0 z"
         id="territory-bre"
         data-territory="bre" />
      <path
         class="territory territory-land"
         d="m 184,963.25001 c 5,-1 12,-2 17,0 4,3 5,6 11,8 10,3 25,0 33,13 2,3 3,7 3,10 -2,7.99999 -8,5 -16,14.99999 0,0 -19,32 -19,32 -2,3 -5,8 -8,10 -2,2 -6,4 -7,6 -1,3 -1,11 -1,14 0,11 -4,11 -6,19 -1,7 3,11 -2,19 -3,5 -8,7 -12,11 -4,5 -7,13 -9,19 9,5 17,15 19,25 2,8 -1,18 8,23 7,4 10,-1 16,-3 5,-1 7,2 14,2 0,0 18,-4 18,-4 9,0 17,6 25,8 8,3 8,2 15,2 6,-1 12,3 16,2 6,-1 8,-9 19,-14 7,-3 21,-2 25,-5 0,0 20,-24 20,-24 4,-3 10,-4 14,-5 -2,-6 -7,-11 -7,-18 1,-5 5,-9 8,-13 4,-5 8,-14 12,-19 0,0 7,-5 7,-5 5,-6 6,-9 14,-9 0,-2 0,-4 2,-6 3,-4 16,-6 21,-6 14,-2 39,-8 47,-20 2,-3 3,-5 3,-8 -15,0 -30,-13 -43,-21 -3,-1 -8,-4 -11,-5 -4,0 -6,1 -11,-1 -8,-2 -17,-7 -24,-11 -6,-4 -14,-9.99999 -19,-14.99999 0,0 -11,-13 -11,-13 0,0 -9,-3 -9,-3 -5,-3 -6,-5 -10,-7 -4,-2 -8,0 -15,-3 0,0 -11,-6.00001 -11,-6.00001 -6,-2 -8,-1 -16,-5 0,0 -34,-17 -34,-17 0,0 -24,-9 -24,-9 -9,-6 -9,-13 -21,-12 -10,0 -8,5 -13,7 -5,2 -11,-1 -14,-1 -2,0 -4,1 -6,3 -9,7 -4,16 -4,25 0,6 -2,10.00001 -4,15.00001 z"
         id="territory-spa"
         data-territory="spa" />
      <path
         class="territory territory-land"
         d="m 192,968.25001 c -3,1 -7,1 -9,3 -2,2 -4,12 -5,15 -2,8 -8,18.99999 -11,25.99999 -4,7 -13,23 -18,28 -5,5 -11,3 -15,9 -1,3 -4,16 -4,19 0,2 0,5 1,6 2,4 10,2 10,10 0,5 -3,10 -5,14 -2,7 1,7 -4,15 -2,3 -8,10 -7,14 0,2 10,7 13,8 4,2 7,4 12,4 2,0 10,-2 11,-3 2,-1 6,-13 8,-16 8,-13 16,-8 16,-22 0,-4 0,-8 1,-12 1,-5 4,-7 5,-13 1,-6 -2,-12 1,-18 3,-7 7,-4 15,-15 0,0 20,-35 20,-35 10,-11.99999 17,-8.99999 13,-16.99999 -5,-10 -21,-7 -30,-11 -8,-3 -8,-9 -18,-9 z"
         id="territory-por"
         data-territory="por" />
      <path
         class="territory territory-land"
         d="m 14,1352.25 c 0,0 564,0 564,0 0,-22 -1,-54 3.00002,-75 3,-10 7,-13 10,-21 -9,-1 -11,-5 -23.00002,-6 -7,-1 -7,3 -13,2 -5,0 -11,-5 -18,-5 -3,0 -18,4 -21,5 -3,1 -7,3 -10,2 -3,0 -7,-4 -9,-6 -4,-3 -8,-6 -13,-7 -13,-4 -40,-4 -54,-4 0,0 -20,-2 -20,-2 -10,0 -19,-1 -29,1 -8,1 -15,4 -22,7 -3,2 -9,5 -13,5 -4,0 -6,-3 -9,-3 -2,-1 -13,-1 -15,0 -4,3 -8,7 -14,10 -9,4 -24,0 -33,-3 -3,-1 -8,-3 -11,-5 -2,-3 -3,-5 -4,-8 -5,1 -6,2 -11,2 -11,0 -28,-1 -35,-10 -5,-6 -7,-15 -10,-22 -1,-3 -3,-7 -7,-6 -7,0 -14,9 -18,14 -12,13 -21,27 -36,36 -13,9 -37,5 -53,10 -9,3 -20,10 -27,16 0,0 -9,11 -9,11 0,0 -14,10 -14,10 -10,10 -24,38 -26,52 z"
         id="territory-naf"
         data-territory="naf" />
      <path
         class="territory territory-land"
         d="m 585.00002,1352.25 c 0,0 70,0 70,0 2,0 6,0 8,-1 2,-2 3,-5 4,-8 2,-8 3,-16 -1,-24 -4,-7 -7,-8 -12,-13 -3,-3 -4,-7 -3,-11 1,-11 11,-15 16,-20 2,-2 4,-8 2,-10 -2,-2 -4,-1 -6,0 -3,2 -10,7 -14,6 -5,-2 -2,-8 -5,-12 -4,-5 -14,-7 -20,-7 0,0 -16,3 -16,3 -3,1 -6,1 -9,3 -6,5 -11,18 -12,26 -3,18 -2,49 -2,68 z"
         id="territory-tun"
         data-territory="tun" />
      <path
         class="territory territory-land"
         d="m 514,726.25 c -3,-2 -12,-5 -14,-8 -3,-5 7,-10 10,-13 9,-5 23,-12 24,-24 0,-2 0,-5 -1,-7 -4,-7 -22,-11 -30,-9 0,0 -11,5 -11,5 -5,2 -10,4 -15,6 0,0 -10,2 -10,2 -8,3 -14,13 -14,22 1,8 4,16 9,23 1,2 3,5 5,7 3,2 8,2 11,3 13,2 25,2 36,-7 z"
         id="territory-lon"
         data-territory="lon" />
      <path
         class="territory territory-land"
         d="m 410,635.25 c 12,1 10,14 5,18 -5,5 -23,3 -27,9 -4,7 7,10 11,12 7,3 12,11 18,15 6,2 7,-1 15,1 -1,2 -2,3 -4,5 -11,8 -19,0 -27,0 -7,0 -7,7 -13,2 -7,6 -4,8 -19,16 -6,4 -11,2 -16,8 3,1 6,4 9,4 3,0 8,-3 11,-4 7,-2 16,1 21,6 7,-3 9,-8 14,-10 5,-1 14,4 20,5 0,0 30,3 30,3 -3,-9 -10,-18 -9,-28 1,-8 6,-16 13,-20 4,-3 7,-3 8,-5 2,-2 0,-11 0,-15 -5,-1 -23,-8 -27,-11 -3,-3 -5,-6 -5,-11 0,-3 0,-7 -1,-10 -6,-8 -24,4 -27,10 z"
         id="territory-wal"
         data-territory="wal" />
      <path
         class="territory territory-land"
         d="m 420,540.25 c 0,0 11,-4 11,-4 3,-11 8,-12 10,-5 1,9 -8,17 -13,24 -6,8 -5,12 4,15 3,2 2,1 5,1 4,1 3,3 6,4 2,1 7,1 9,1 0,0 -7,6 -7,6 0,0 4,8 4,8 0,0 0,13 0,13 1,5 3,10 1,15 -2,10 -12,8 -8,20 0,2 1,4 3,5 3,2 21,9 25,10 0,-15 -2,-18 0,-35 0,0 5,-16 5,-16 2,-6 1,-17 0,-23 -1,-6 -12,-19 -16,-26 -7,-14 -4,-17 -4,-31 -7,-2 -24,-5 -31,-5 -4,1 -9,3 -10,7 -1,4 3,4 5,6 1,2 1,7 1,10 z"
         id="territory-lvp"
         data-territory="lvp" />
      <path
         class="territory territory-land"
         d="m 478,575.25 c 0,0 1,8 1,8 0,0 0,9 0,9 0,0 -6,37 -6,37 0,0 2,44 2,44 6,-2 21,-8 26,-11 0,0 4,-5 4,-5 3,-2 7,-4 7,-8 0,-6 -7,-13 -10,-18 7,-3 8,-4 7,-12 -2,-15 -9,-15 -13,-26 -4,-7 -3,-14 -6,-16 -2,-2 -9,-2 -12,-2 z"
         id="territory-yor"
         data-territory="yor" />
      <path
         class="territory territory-land"
         d="m 488,446.25 c -7,10 -13,10 -17,17 -4,6 -6,18 -7,25 0,0 -5,36 -5,36 -1,9 -2,15 1,24 2,4 12,19 15,23 6,0 12,2 15,1 5,-2 5,-10 4,-14 -3,-9 -15,-20 -9,-32 4,-8 14,-17 20,-24 3,-3 7,-8 7,-12 -2,-8 -17,-12 -24,-13 -3,0 -11,2 -13,-1 -3,-3 4,-8 6,-9 0,0 17,-11 17,-11 6,-5 2,-8 -4,-9 0,0 -6,-1 -6,-1 z"
         id="territory-edi"
         data-territory="edi" />
      <path
         class="territory territory-land"
         d="m 422,506.25 c 5,0 15,-1 7,7 0,0 27,6 27,6 0,0 3,-24 3,-24 1,-9 4,-25 8,-33 5,-8 13,-10 17,-17 -4,-1 -10,-3 -14,-2 -5,1 -8,6 -11,10 -2,2 -14,10 -16,11 -5,2 -9,-7 -14,0 -4,7 5,13 5,19 -1,6 -10,15 -12,23 z"
         id="territory-cly"
         data-territory="cly" />
      <path
         class="territory territory-neutral"
         d="m 358,65.250001 c 0,0 -6,18 -6,18 -5,-7 -4,-14 -8,-16 -7,-2 -7,14 -13,5 0,0 -4,8 -4,8 0,0 -7,-5 -7,-5 0,14 11,9 20,14 4,2 7,7 3,10 -2,1.999999 -4,1.999999 -6,2.999999 0,0 4,9 4,9 -12,-2 -18,-11.999999 -31,-12.999999 4,7.999999 16,10.999999 16,17.999999 1,4 -3,15 -6,17 -5,4 -10,6 -12,-1 -4,1 -4,3 -5,7 9,5 17,9 24,17 8,10 8,30 28,29 7,0 11,-2 19,-2 0,0 19,2 19,2 0,0 25,-1 25,-1 6,-1 18,-7 23,-12 11,-9 7,-21 6,-33 0,-7 1,-14 -5,-20 -5,-4 -10,-4 -16,-4 -8,0 -11,1 -17,-4 -2,1 -5,3 -7,3 -5,-2 -3,-13 -11,-11 -1,1 -2,1 -3,2 -1,1 -3,2 -4,3 0,0 -1,-14.999999 -1,-14.999999 -1,0 -2,0 -3,2 -3,2 -10,19.999999 -17,8.999999 -2,1 -7,4 -9,4 -4,-1 -1,-9.999999 0,-11.999999 3,-5 6,-6 8,-9 2,-3 2,-16 0,-19 -1,-2 -2,-2 -4,-3 z M 334,588.25 c -4,8 -12,3 -19,7 -5,2 -9,7 -11,11 -2,3 -4,7 -7,8 -3,1 -7,-2 -10,-3 0,7 3,7 -3,12 0,0 0,2 0,2 4,3 5,3 3,8 6,4 3,5 3,11 0,0 22,-2 22,-2 0,0 15,-2 15,-2 0,0 15,-4 15,-4 0,0 15,2 15,2 3,0 6,0 9,-1 4,-3 15,-15 16,-20 1,-4 1,-18 6,-28 2,-6 6,-9 11,-11 4,-2 10,-3 12,-7 3,-5 -1,-10 -2,-15 -2,-5 0,-10 -2,-13 -3,-4 -6,-2 -10,-4 0,0 -5,-5 -5,-5 -3,-1 -11,-4 -14,-4 -8,-2 -8,2 -14,7 -2,1 -5,3 -6,5 -1,3 4,7 -2,10 -10,4 -24,-10 -32,-8 -6,2 -1,9 -3,14 -2,5 -8,8 -9,13 -1,8 16,16 22,17 z m 309.00002,470 c -7,6 -11,5 -14,9 -6,7 -5,27 7,33 6,-10 15,-32 7,-42 z m -36,60 c -3,11 3,10 4,18 0,0 -2,14 -2,14 0,7 1,14 -1,21 -1,4 -3,14 1,17 5,4 9,-2 14,-3 3,-1 5,0 7,-2 2,-3 5,-12 6,-15 2,-9 8,-27 8,-36 0,0 0,-9 0,-9 -1,-1 -1,-4 -2,-5 -1,-3 -5,-5 -8,-5 -6,-1 -13,5 -19,6 -3,0 -5,0 -8,-1 z M 445,1135.25 c 0,0 12,7 12,7 7,3 13,-6 12,-10 -2,-6 -17,-9 -24,3 z m 271.00002,98 c -3,2 -9,9 -6,13 3,6 12,7 18,9 9,4 21,13 28,19 5,4 16,12 23,9 3,-2 4,-5 4,-8 0,-6 0,-7 1,-14 0,0 4,-13 4,-13 0,-3 0,-7 -2,-9 -3,-2 -11,-4 -14,-4 -11,0 -20,3 -32,1 -7,-2 -17,-5 -24,-3 z m 558.99998,81 c 1,3 1,5 3,8 7,11 22,5 30,-2 0,0 7,-6 7,-6 3,-3 5,-3 8,-4 -2,-10 -2,-8 3,-18 -6,2 -8,4 -14,6 0,0 -18,4 -18,4 -3,1 -3,4 -6,7 -3,3 -9,4 -13,5 z m -175,16 c -2,1 -5,2 -7,2 -2,0 -5,-3 -7,-4 0,0 -15,-4 -15,-4 -9,-1 -17,4 -33,-2 -5,-2 -11,-4 -14,2 -1,1 -1,3 -1,5 1,1 1,2 2,2 0,0 18,2 18,2 7,2 13,6 20,6 5,0 7,-1 11,-1 10,-1 19,1 26,-8 z"
      />
      <path
         class="territory territory-water"
         d="m 1572,835.25 c -3,13 -3,32 -3,46 0,3 0,8 2,10 2,2 7,3 10,5 5,2 11,7 14,11 8,10 5,16 18,30 0,0 26,22.00001 26,22.00001 5,4 7,3 14,8 0,0 21,19 21,19 4,3 8,5 14,6 4,0 11,-1 14,3 1,2 1,4 -1,4.99999 -3,2 -10,1 -13,8 -2,4 -1,12 0,17 1,9 1,10 1,19 0,0 -3,0 -3,0 0,6 1,12 3,18 9,26 27,33 52,38 9,2 18,3 27,4 15,1 40,-13 47,-26 4,-6 4,-10 4,-16 0,0 0,-11 0,-11 0,-10 -4,-19 -6,-28 -1,-5 -2,-13 -6,-18 -3,-5 -8,-5.99999 -13,-7.99999 -3,-1 -8,-3 -9,-6 -1,-2 1,-4 1,-6 0,0 0,-6 0,-6 0,-3 2,-5 3,-10 -8,2 -15,8 -18,16 -8,-4 -12,-15 -15,-23 0,-2 -2,-7.00001 -2,-9.00001 2,-6 8,0 13,-1 0,0 15,-4 15,-4 5,-3 12,-13 12,-19 -1,-8 -11,-8 -19,-13 -4,-3 -9,-8 -13,-9 -3,-1 -5,-1 -8,0 -9,5 -6,18 -6,26 -10,-2 -17,-14 -16,-23 0,-4 1,-14 -2,-17 -5,-3 -14,5 -22,3 0,0 -8,-2 -8,-2 -3,0 -7,1 -10,-2 -3,-2 -3,-6 -6,-10 -3,-4 -9,-8 -14,-10 -6,-3 -7,-3 -13,-4 -2,0 -5,-1 -6,-3 -1,-3 1,-5 3,-7 7,-7 14,-9 16,-13 3,-5 -1,-10 -2,-15 -1,-7 4,-14 10,-18 4,-3 7,-3 10,-7 6,-9 2,-31 -2,-41 -1,-4 -3,-9 -7,-12 -6,-3 -14,-1 -20,0 -10,2 -24,8 -31,15 0,0 -16,22 -16,22 -6,7 -13,11 -18,19 -5,8 -1,15 -9,24 -2,2 -5,5 -8,4 -2,0 -4,0 -5,-1 z"
      />
      <path
         class="territory territory-water"
         d="m 0,0.25 c 0,0 0,684 0,684 0,0 38,-10 38,-10 32,-5 83,-7 115,-3 17,3 40,10 55,16 6,3 9,4 14,7 2,2 5,4 8,3 4,-1 13,-11 16,-14 0,0 29,-29 29,-29 6,-6 12,-10 14,-18 -4,-2 -4,-3 -3,-7 -5,-5 -5,-7 1,-10 -1,-2 -4,-6 -1,-8 3,-4 8,3 12,0 0,0 8,-12 8,-12 7,-8 15,-9 25,-9 -6,-3 -23,-11 -21,-19 1,-5 7,-8 9,-13 2,-6 -4,-12 4,-15 5,-2 12,1 17,4 7,3 11,4 18,2 -1,-2 -3,-5 -2,-7 0,-3 3,-4 5,-5 5,-4 8,-9 13,-10 4,0 15,3 18,5 0,0 5,4 5,4 4,3 7,1 11,5 3,4 2,9 3,13 1,7 3,8 4,12 0,4 -4,9 -6,12 4,3 7,6 12,8 8,3 17,2 25,2 -3,-4 -3,-4 -1,-9 -4,-2 -5,-2 -6,-6 -1,0 -3,1 -4,1 -5,0 -14,-5 -13,-12 2,-6 9,-13 13,-18 3,-6 3,-10 3,-16 -6,4 -3,10 -12,10 -1,1 -1,2 -2,3 -1,0 -2,1 -4,1 -4,-2 -2,-9 -2,-12 -7,0 -9,-5 -5,-10 5,-6 12,-4 18,-12 0,0 -4,0 -4,0 -17,0 4,-15 4,-25 1,-6 -8,-12 -4,-19 4,-7 9,-6 13,-1 4,-2 14,-8 17,-11 5,-6 6,-9 14,-12 0,0 -3,-1 -3,-1 0,0 2,-20 2,-20 0,0 4,-41 4,-41 0,0 8,-68 8,-68 0,-9 0,-16 -2,-25 -3,-10 -18,-36 -24,-47 0,0 -29,-54 -29,-54 0,0 -9,3 -9,3 0,0 -27,0 -27,0 0,0 -21,-2 -21,-2 -9,1 -19,5 -28,-1 -10,-6 -13,-22 -18,-29 -4,-5 -11,-8 -16,-11 -2,-1 -6,-3 -7,-6 0,-1 1,-2 1,-3 3,-11 7,1 13,-1 6,-2 6,-6 8,-11 0,0 1,-5 1,-5 1,-7 -7,-9 -12,-14 -2,-2 -5,-4.999999 -3,-6.999999 3,-2 7,0 9,0 7,2.999999 11,7.999999 19,9.999999 -2,-7 0,-7 6,-8.999999 -3,-13 -16,-6 -23,-15 -4,-5 -3,-14 6,-7 3,-4 4,-8 8,-3 2,-2 4,-7 7,-8 7,-3 10,9 10,14 6,-12 3,-25.000001 3,-38.000001 0,0 0,-41 0,-41 0,0 -354,0 -354,0 z"
         id="territory-nat"
         data-territory="nat" />
      <path
         class="territory territory-water"
         d="m 358,0.25 c 0,0 0,53 0,53 0,15.000001 9,10.000001 8,27.000001 -1,8 -5,10 -8,14 -2,4 -4,8.999999 -4,12.999999 0,0 12,-5 12,-5 0,0 0,4 0,4 9,-2 7,-7.999999 12,-12.999999 6,-5 7,0 7,5 0,0 0,4.999999 0,4.999999 2,-1 6,-2 8,-2 6,0 7,7 9,11 2,-1 5,-2 7,-2 2,0 3,2 7,3 0,0 12,0 12,0 3,0 5,0 8,1 15,4 13,19 14,31 1,7 2,14 -1,21 -4,7 -12,12 -19,16 0,0 35,66 35,66 12,20 21,35 21,59 0,0 -4,34 -4,34 0,0 -7,71 -7,71 0,0 -3,28 -3,28 0,0 24,5 24,5 3,1 7,3 10,3 2,-1 10,-8 12,-11 10,-8 17,-15 28,-22 27,-16 60.00002,-22 90.00002,-28 10,-3 30,-8 39,-7 9,-12 13,-17 28,-14 -4,-10 4,-10 12,-11 -4,-5 -4,-8 3,-11 6,-2 8,2 12,1 3,-1 9,-7 15,-10 6,-4 10,-2 12,-4 2,-2 2,-4 5,-9 3,-5 14,-16 19,-17 2,-1 4,0 6,0 0,-14 10,-26 17,-38 6,-9 11,-21 17,-29 0,0 19,-19 19,-19 0,0 11,-16 11,-16 0,0 16,-22 16,-22 0,0 11,-14 11,-14 2,-2 6,-6 7,-7 1,-3 -2,-5 -2,-8 -1,-3 3,-8 5,-11 4,-3 7,-1 9,-4 3,-2 4,-7 10,-9 4,-2 11,-1 22,-6 9,-4 14,-11 22,-16 6,-4 16,-8.999999 19,-14.999999 2,-3 0,-10 -1,-14 0,0 0,-18 0,-18 0,0 1,-15.000001 1,-15.000001 0,0 2,-44 2,-44 0,0 -614.00002,0 -614.00002,0 z"
         id="territory-nrg"
         data-territory="nrg" />
      <path
         class="territory territory-water"
         d="m 976.00002,0.25 c 0,0 -2,39 -2,39 0,0 -1,16 -1,16 0,0 0,16.000001 0,16.000001 0,3 0,13 2,15 2,3 6,2 7,6 2,4 -1,15.999999 -1,20.999999 6,-6 6,-14.999999 10,-21.999999 1,-2 4,-6 6,-4 2,3 0,12 1,16.999999 C 1002,98.250001 1000,88.250001 1005,83.250001 c 3,-4 10,-1 11,4 0,5 -3,8 -1,15.999999 5,-3.999999 5,-9.999999 11,-11.999999 6,-1 24,6 21,13.999999 -2,6 -13,9 -19,9 2,3 7,7 11,8 5,0 7,-4 19,-4 5,-8 17,-5 18,0 0,2 -3,6 -4,8 10,4 19,1 29,1 3,0 9,0 12,0 7,2 22,9 29,12 0,0 15,5 15,5 12,3 27,7 36,15 3,3 12,15 13,19 2,12 -7,26 -15,34 -3,3 -6,6 -10,8 -4,1 -13,2 -17,2 -9,0 -36,-3 -44,-5 0,0 -9,-4 -9,-4 -4,0 -7,2 -12,0 -6,-2 -7,-5 -14,-8 2,11 9,12 17,18 4,3 6,6 11,8 4,2 8,3 12,6 7,7 4,18 6,24 2,4 7,11 10,15 2,4 3,8 7,11 0,0 19,7 19,7 3,1 15,7 18,6 2,0 5,-3 7,-5 -2,-5 -5,-10 -10,-12 -3,0 -6,0 -9,-1 -4,-2 -8,-7 -10,-11 -2,-5 -1,-15 6,-16 4,0 9,4 12,6 5,2 8,3 14,3 0,0 26,0 26,0 7,0 18,3 24,2 0,0 0,-2 0,-2 -7,-2 -17,-2 -21,-4 -6,-3 -8,-9 -13,-13 -4,-4 -11,-7 -12,-12 -2,-6 7,-15 10,-19 9,-11 8,-15 11,-19 6,-6 18,-6 26,-5 3,-7 4,-20 -1,-27 -4,-4 -8,-3 -11,-9 -3,-5 -2,-14 -6,-25 -4,-9 -9,-12 -14,-19 12,-4 39,-3 43,12 2,7 -7,10 -9,17 0,2 0,5 2,6 4,5 19,9 25,7 16,-4 11,-17 12,-29 2,-10 7,-22 13,-30.999999 2,-4 9,-15 13,-16 2,0 3,0 5,1 0,-5 -2,-12 0,-17 6,-10.000001 14,0 15,7 2,7 -3,13 -3,26 0,14.999999 1,18.999999 10,31.999999 1,-4 -5,-14 -5,-20 0,-6 2,-11.999999 4,-17.999999 0,-4 1,-10 3,-13 0,0 4,-7 4,-7 2,-4 1,-8 6,-15.000001 6,-7 11,-5 16,-10 4,-5 5,-11 7,-15 1,-2 3,-5 6,-5 2,0 4,4 5,5 3,3 5,5 9,6 -1,-3 -2,-7 -2,-10 0,-6 3,-8 -1,-14 -1,-2 -3,-4 -5,-5 -2,-2 -5,-4 -7,-5 -4,-2 -16,-1 -21,-1 0,0 -68,0 -68,0 0,0 -314.99998,0 -314.99998,0 z"
         id="territory-bar"
         data-territory="bar" />
      <path
         class="territory territory-water"
         d="m 856.00002,517.25 c 0,0 4,8 4,8 0,0 2,9 2,9 0,0 21,6 21,6 0,0 44,15 44,15 0,0 25,3 25,3 1,-2 2,-4 4,-6 9,-11 20,4 27,11 2,3 4,6 7,7 9.99998,2 11.99998,-14 11.99998,-21 0,-5 1,-17 -2,-21 -1.99998,-3 -4.99998,-2 -9.99998,-6 -6,-5 -8,-16 -6,-24 2,-7 8,-10 14,-13 10.99998,-6 22.99998,-7 35.99998,-6 0,0 14,2 14,2 14,1 13,-11 20,-16 3,-2 5,-2 8,-3 0,0 8,-4 8,-4 3,0 8,1 12,1 -11,-15 -28,-1 -30,-22 0,0 -7,5 -7,5 0,0 -24,8 -24,8 0,0 -29,11 -29,11 -5,2 -22.99998,7 -26.99998,6 -5,0 -6,-5 -11,-7 0,0 -7,-2 -7,-2 0,0 -9,-5 -9,-5 0,0 -7,-3 -7,-3 -5,-3 -8,-11 -7,-17 0,-9 4,-11 4,-21 0,0 -6,-34 -6,-34 -1,-11 9,-22 16,-30 0,0 12,-15 12,-15 0,0 20,-30 20,-30 0,0 11,-14 11,-14 1,-2 1,-5 0,-7 -3,-10 -15,-16 -25,-17 -4,0 -9,1 -13,3 -9,6 -17,23 -17,34 0,10 3,11 1,17 -3,10 -18,24 -26,31 0,0 -14,10 -14,10 -3,3 -6,7 -8,10 -10,13 -12,18 -16,34 -2,11 -5,30 0,40 3,5 7,6 11,10 7,8 13,17 10,28 0,4 -3,9 -5,12 -10,17 -19,20 -37,23 z"
         id="territory-bot"
         data-territory="bot" />
      <path
         class="territory territory-water"
         d="m 858.00002,538.25 c -1,8 -3,12 -3,21 0,10 -1,19 -5,29 -2,6 -5,13 -11,16 -4,2 -10,1 -15,1 -5,0 -10,1 -14,5 -6,7 -5,18 -19,19 -3,0 -8,-1 -10,0 -2,1 -8,10 -10,13 -7,8 -18,13 -28,12 -14,-1 -14,-21 -28,-25 1,8 2,12 7,19 3,3 11,8 11,13 0,3 -3,8 -5,10 4,0 9,0 12,-1 4,-1 5,-3 10,-5 0,0 15,-4 15,-4 4,-2 12,-6 17,-5 1,0 2,0 3,0 7,4 -1,9 2,13 2,4 13,6 18,6 17,0 33,-7 49,-14 14,-6 23,-12 38,-5 -4,8 4,13 13,9 6,-2 11,-5 14,-10 2,-3 2,-6 4,-9 2,-3 5,-4 8,-5 2,0 4,1 6,0 4,-2 5,-11 5,-15 2,-11 -4,-24 -1,-39 0,0 9,-27 9,-27 -8,0 -14,0 -22,-1 -8,-2 -15,-5 -22,-7 -11,-4 -37,-12 -48,-14 z"
         id="territory-bal"
         data-territory="bal" />
      <path
         class="territory territory-water"
         d="m 717.00002,625.25 c 7,4 9,7 13,13 3,4 6,10 11,12 7,3 19,-2 24,-7 3,-2 6,-7 8,-10 3,-3 5,-7 6,-11 1,-10 -3,-15 -5,-24 0,0 -11,-2 -11,-2 0,0 -22,-2 -22,-2 0,0 -8,0 -8,0 0,0 -9,9 -9,9 0,0 -4,8 -4,8 0,0 -3,14 -3,14 z m 47,15 c -5,-3 -7,-6 -11,-10 -3,-3 -10,-13 -11,-17 0,-3 3,-5 5,-7 4,-4 6,-9 12,-9 12,0 11,7 14,16 1,4 3,7 1,11 -1,6 -7,11 -10,16 z m -9,6 c -3,1 -5,2 -8,2 -14,1 -10,-19 2,-11 1,1 2,2 3,3 2,2 2,4 3,6 z"
      />
      <path
         class="territory territory-water"
         d="m 686.00002,518.25 c -2,19 -3,25 6,42 0,0 2,0 2,0 6,-7 11,-6 19,-9 6,-2 11,-4 16,-8 3,-1 8,-5 11,-1 2,2 2,4 2,6 1,4 0,8 -2,12 -2,4 -6,8 -6,13 1,4 4,6 7,9 3,4 2,6 5,8 1,1 6,2 8,2 0,0 20,4 20,4 1,-3 4,-13 4,-15 0,-5 -8,-23 -10,-29 0,0 -8,-29 -8,-29 -1,-6 -4,-13 -4,-19 1,-5 2,-15 -4,-18 -4,-1 -7,4 -16,9 -8,4 -10,4 -19,9 -11,7 -17,13 -31,14 z"
         id="territory-ska"
         data-territory="ska" />
      <path
         class="territory territory-water"
         d="m 615.00002,673.25 c 13,-2 23,2 32,0 7,-2 10,-8 16,-8 8,0 12,11 19,7 5,-3 6,-10 6,-15 0,0 0,-13 0,-13 0,-5 -1,-6 -1,-12 0,-6 2,-9 2,-17 0,-5 -2,-6 -3,-10 -1,-3 -1,-8 -1,-11 0,0 -20,0 -20,0 -14,0 -25,9 -33,19 -11,14 -13,27 -15,44 0,0 -2,16 -2,16 z"
         id="territory-hel"
         data-territory="hel" />
      <path
         class="territory territory-water"
         d="m 476,475.25 c 0,0 9,0 9,0 6,0 8,0 13,2 3,1 5,2 8,3 10,7 9,13 3,21 -7,8 -22,20 -23,30 -1,9 7,20 10,28 2,7 -1,10 -1,17 0,7 0,13 4,19 4,8 8,9 11,19 3,8 4,15 -5,18 3,5 12,13 9,20 -3,4 -6,4 -9,10 0,0 16,2 16,2 3,1 6,2 9,4 2,1 3,2 4,4 11,15 -12,28 -22,35 -2,1 -9,5 -10,7 -2,6 10,6 13,11 1,2 1,9 7,12 2,1 11,-1 14,-2 10,-1 33,-5 40,-11 5.00002,-5 9.00002,-18 12.00002,-24 6,-12 12,-18 24,-24 -2,-7 0,-13 1,-20 3,-24 12,-51 36,-62 11,-6 25,-4 37,-4 0,0 4,-25 4,-25 0,-3 -4,-9 -6,-12 -3,-6 -3,-10 -3,-17 0,0 0,-18 0,-18 -1,-2 -6,-4 -8,-6 -5,-3 -15,-11 -15,-18 -1,-11 15,-14 17,-24 -3,-1 -5,-1 -8,-1 -2,1 -6,2 -8,1 -5,-1 -4,-8 -1,-11 5,-4 8,0 12,-7 0,0 -11,-4 -11,-4 3,-6 6,-4 12,-6 -5,-9 -9,-6 -10,-15 0,-8 4,-25 7,-33 0,0 4,-11 4,-11 0,0 -45,9 -45,9 -26,6 -53.00002,12 -77.00002,25 -17,10 -25,19 -39,31 -7,6 -10,9 -18,14 -6,4 -14,6 -17,13 z"
         id="territory-nth"
         data-territory="nth" />
      <path
         class="territory territory-water"
         d="m 296,747.25 c 0,0 16,10 16,10 0,0 27,14 27,14 0,0 17,8 17,8 0,0 13,-2 13,-2 0,0 12,2 12,2 0,0 9,0 9,0 0,0 10,8 10,8 0,0 8,2 8,2 0,0 20,9 20,9 -3,-11 -1,-8 1,-17 0,-5 -4,-17 -2,-20 2,-3 11,-1 14,0 3,4 2,9 5,13 6,7 20,8 29,8 -3,-6 -1,-7 5,-10 9,-4 11,0 18,-4 12,-7 14,-18 21,-28 -2,-2 -5,-7 -7,-8 -2,0 -6,1 -8,2 -4,1 -8,2 -13,2 -5,0 -18,-1 -22,-3 -5,-2 -5,-4 -12,-5 0,0 -29,-3 -29,-3 -5,-1 -12,-5 -17,-6 -7,0 -10,8 -15,9 -2,1 -5,-2 -7,-3 -3,-1 -8,-3 -12,-3 -5,1 -9,4 -13,5 -6,1 -7,-3 -12,-2 0,0 -20,7 -20,7 0,0 -36,15 -36,15 z"
         id="territory-eng"
         data-territory="eng" />
      <path
         class="territory territory-water"
         d="m 288,645.25 c 0,0 -38,39 -38,39 -5,5 -13,12 -16,18 0,0 39,30 39,30 4,3 14,11 18,12 4,0 18,-6 22,-8 0,0 34,-14 34,-14 5,-2 6,-5 9,-7 3,-2 5,0 12,-4 4,-2 10,-5 13,-8 2,-3 3,-6 5,-7 3,-2 4,0 5,2 3,-2 6,-5 9,-5 2,-1 9,2 12,2 8,2 11,1 17,-3 -4,-1 -8,1 -12,-1 -6,-3 -11,-12 -19,-16 -5,-1 -16,-5 -13,-12 6,-13 33,-2 31,-20 -1,-7 -6,-5 -8,-8 -2,-3 7,-8 9,-9 12,-8 15,-9 26,1 2,-1 3,-2 4,-4 3,-7 -1,-24 -1,-32 -16,4 -30,-1 -41,-13 -4,1 -8,2 -11,6 -11,10 -5,30 -13,40 -4,4 -12,13 -16,15 -6,3 -13,0 -20,0 -9,0 -12,2 -21,3 -8,2 -28,4 -36,3 z"
         id="territory-iri"
         data-territory="iri" />
      <path
         class="territory territory-water"
         d="m 0,1352.25 c 2,0 8,0 10,-1 2,-1 4,-8 5,-10 2,-7 5,-14 9,-20 4,-7 10,-17 16,-23 0,0 12,-9 12,-9 6,-6 9,-11 16,-16 8,-6 18,-12 28,-14 0,0 38,-4 38,-4 17,-5 33,-28 45,-41 0,0 10,-10 10,-10 2,-1 5,-3 6,-5 4,-8 -5,-12 -8,-18 0,0 -2,-16 -2,-16 -2,-10 -8,-19 -17,-24 -9,-5 -12,1 -21,0 -6,-1 -11,-5 -16,-8 -3,-1 -8,-3 -9,-6 -1,-4 6,-11 8,-14 4,-7 2,-9 4,-15 1,-5 4,-8 4,-13 0,-8 -5,-4 -8,-8 -4,-4 -3,-10 -1,-14 1,-6 4,-14 9,-18 4,-4 7,-3 12,-10 9,-10 23,-37.99999 26,-50.99999 0,0 5,-20 5,-20 2,-5 4,-9.00001 5,-16.00001 0,-9 -5,-16 2,-24 3,-3 7,-6 11,-6 3,0 9,3 13,1 2,0 2,-3 4,-4 3,-3 9,-4 12,-4 11,1 9,9 23,15 0,0 24,8 24,8 0,0 26,14 26,14 0,0 20,7 20,7 0,0 11,6.00001 11,6.00001 5,2 10,2 13,3 8,2 11,10 23,9 5,0 13,-9 17,-13 2,-3.00001 11,-22.00001 11,-25.00001 1,-3 0,-4 0,-7 1,-7 7,-17 12,-21 -4,-13 0,-13 -1,-23 -2,-11 -11,-15 -12,-27 0,-4 1,-7 0,-11 0,-5 -3,-7 -4,-9 -1,-3 -1,-5 -2,-7 -1,-2 -5,-4 -7,-6 -5,-5 -10,-11 -16,-15 -5,-2 -14,-1 -19,-8 -1,-2 -2,-5 -2,-7 7,-2 7,-5 8,-12 0,0 -20,-10 -20,-10 -23,-11 -39,-19 -60,-35 -22,-17 -36,-33 -63,-45 -22,-10 -56,-19 -80,-19 0,0 -42,0 -42,0 0,0 -12,1 -12,1 -19,1 -37,3 -56,9 -3,1 -17,4 -19,6 -1,1 -1,5 -1,7 0,0 0,656 0,656 z"
         id="territory-mid"
         data-territory="mid" />
      <path
         class="territory territory-water"
         d="m 472,1134.25 c -1,2 -2,4 -3,6 -1,1 -3,3 -4,4 -9,6 -14,-7 -22,-6 0,0 -21,8 -21,8 -14,4 -28,3 -42,3 -5,0 -14,1 -18,5 0,0 -18,22 -18,22 -6,5 -20,2 -29,8 -7,4 -11,12 -17,13 -3,0 -7,-2 -10,-3 -6,-1 -8,2 -15,0 0,0 -23,-9 -23,-9 -12,-2 -16,2 -25,3 -9,1 -9,-5 -19,1 -1,1 -4,2 -5,4 -3,4 1,8 3,11 4,7 6,20 12,27 6,6 24,8 33,8 3,0 9,-2 11,-1 4,1 2,5 8,9 7,4 24,7 32,7 14,0 15,-9 24,-12 2,0 11,0 13,0 4,2 5,4 10,3 0,0 22,-8 22,-8 9,-3 20,-5 29,-5 21,0 21,3 34,3 16,0 36,-1 51,3 6,2 9,4 14,8 2,2 6,6 9,6 3,1 6,-2 9,-2 0,0 22,-6 22,-6 5,1 14,5 18,6 5,1 6,-3 13,-3 10,1 14.00002,5 21.00002,7 8,1 16,-1 24,-2 0,0 4,-31 4,-31 0,-7 -3,-20 -6,-26 -2,-4 -5,-7 -6,-12 -2,-5 2,-13 2,-20 0,-3 -1,-13 -2,-14 -1,-2 -6,-4 -8,-4 0,0 -20.00002,-7 -20.00002,-7 -21,-7 -33,-8 -55,-8 0,0 -32,3 -32,3 -6,1 -12,2 -18,1 z"
         id="territory-wes"
         data-territory="wes" />
      <path
         class="territory territory-water"
         d="m 472,1132.25 c 0,0 24,-3 24,-3 22,-3 40,-5 62,0 0,0 49.00002,15 49.00002,15 4,-12 -1,-11 -3,-19 0,-4 1,-7 2,-10 13,6 14,-4 28,-5 0,-16 -10,-12 -11,-28 0,-6 1,-15 6,-18 4,-3 7,-3 12,-7 5,-5 5,-10 11,-11 6,-2 16,1 22,2 0,0 -2,-13 -2,-13 0,-4 0,-8 -1,-12 -1,-8 -5,-9 -11,-14 -7,-5 -10,-9 -20,-7 -10,2 -13,8 -20,12 0,0 -23,8 -23,8 -9,4 -15,11 -25.00002,13 -9,2 -16,-3 -22,-10 -2,-3 -2,-5 -4,-7 -5,-3 -9,-1 -14,-2 -6,-1 -13,-7 -19,-8 -4,0 -9,2 -13,3 -20,10 -4,31 -22,46 -8,6 -24,12 -34,14 -6,1 -24,3 -28,5 -4,3 -2,6 -5,8 -2,1 -5,1 -8,3 0,0 -5,5 -5,5 0,0 -6,6 -6,6 -4,3 -8,11 -11,16 0,0 -7,9 -7,9 -3,6 0,18 6,21 2,1 6,1 8,1 0,0 16,0 16,0 13,0 25,-4 36,-10 5,-3 6,-6 11,-9 8,-3 16,0 21,6 z"
         id="territory-gol"
         data-territory="gol" />
      <path
         class="territory territory-water"
         d="m 614.00002,1192.25 c 4,10 6,14 6,25 0,0 0,12 0,12 0,0 -3,22 -3,22 10,-2 25,-1 30,9 1,3 1,7 1,10 6,-1 20,-10 26,-13 0,0 30,-13 30,-13 5,-4 7,-12 13,-14 5,-2 19,3 25,4 0,0 7,0 7,0 13,0 19,-2 32,0 9,-11 11,-6 21,-3 2,-3 10,-16 11,-19 1,-5 -1,-11 -3,-16 -2,-4 -3,-11 -6,-14 -3,-5 -10,-10 -15,-15 -2,-2 -4,-4 -5,-7 -1,-2 -1,-5 -4,-7 -2,-3 -12,-2 -16,-2 1,-7 -3,-11 -6,-17 -2,-3 -3,-7 -6,-9 -4,-2 -12,-2 -16,-3 -6,-1 -11,-5 -15,-10 0,0 -10,-14 -10,-14 0,0 -15,-18 -15,-18 0,0 -13,-17 -13,-17 -2,-2 -5,-9 -7,-10 -3,-2 -9,-3 -12,-3 -4,-1 -9,-3 -13,0 -6,4 -3,12 -3,18 0,9 -1,15 -5,23 -2,4 -5,9 -6,13 -1,9 5,8 8,14 1,4 1,10 1,14 0,11 -6,28 -9,39 -1,4 -3,12 -6,14 -3,3 -5,1 -8,2 -2,1 -7,4 -9,5 z"
         id="territory-tyn"
         data-territory="tyn" />
      <path
         class="territory territory-water"
         d="m 902.00002,1160.25 c 0,-14 1,-18 4,-31 1,-4 3,-12 1,-16 -2,-4 -8,-8 -11,-11 -13,-12 -15,-13 -29,-23 0,0 -29,-23 -29,-23 0,0 -18,-12 -18,-12 0,0 -16,-14 -16,-14 -5,-4 -11,-8 -16,-13 -4,-5 -9,-14 -8,-19.99999 1,-8 7,-9 3,-17 -7,4 -9,18 -16,17 -3,-1 -7,-7 -7,-10 -2,-7 4,-14 2,-17 -2,-3 -6,-2 -8,-1 -4,0 -13,4 -17,6 -2,1 -4,3 -5,5 -1,3 2,6 1,9 0,2 -3,5 -4,7 -2,3.99999 -1,10.99999 0,14.99999 6,12 21,20 29,33 4,8 4,15 7,23 3,9 12,19 19,25 5,4 11,7 18,9 3,0 12,1 14,3 4,4 -2,7 4,14 7,8 37,26 48,34 3,2 6,5 9,8 1,2 3,5 5,5 3,1 16,-4 20,-5 z"
         id="territory-adr"
         data-territory="adr" />
      <path
         class="territory territory-water"
         d="m 842.00002,1156.25 c -4,5 -8,11 -12,17 -1,2 -3,5 -2,8 1,3 6,5 8,7 6,6 9,14 5,22 -4,6 -8,1 -12,5 -2,2 -2,7 -3,10 -3,6 -8,16 -13,19 -8,6 -16,0 -14,-10 -6,-3 -11,-6 -14,2 3,2 5,3 6,7 0,4 -3,11 -4,16 0,0 -3,21 -3,21 -1,3 -4,5 -7,6 -10,1 -18,-8 -25,-13 -4,-4 -17,-12 -22,-15 0,0 -13,-4 -13,-4 -5,-2 -7,-6 -10,-6 -3,-1 -8,2 -11,3 0,0 -24,11 -24,11 3,18 -18,18 -19,33 -1,11 11,16 16,25 5,11 1,21 -3,32 0,0 354.99998,0 354.99998,0 0,0 1,-18 1,-18 0,0 -13,-30 -13,-30 -2,-5 -5,-15 -11.99998,-15 -4,0 -3,7 -10,11 -2,-8 -3,-17 -11,-21 -1,2 -4,8 -7,7 -1,-1 -2,-4 -3,-6 -1,-5 -1,-11 -3,-16 -3,-8 -10,-12 -11,-18 -1,-9 8,-9 11,-10 8,-2 8,-4 17,-3 11,2 13,6 20.99998,8 1,-8 0,-7 -7.99998,-11 -2,-1 -4,-2 -7,-3 0,0 -24,4 -24,4 -3,0 -7,1 -9,0 -2,-1 -19,-14 -4,-19 -5,-3 -6,0 -10,-2 -3,-1 -8,-6 -10,-9 -6,-7 -3,-9 -5,-15 -2,-6 -15,-19 -20,-21 -4,-2 -18,3 -22,6 -3,2 -4,5 -7,5 -3,1 -7,-2 -9,-3 -9,-4 -16,-11 -24,-17 z"
         id="territory-ion"
         data-territory="ion" />
      <path
         class="territory territory-water"
         d="m 1025,1146.25 c 0,0 15,18 15,18 -5,-3 -11,-5 -17,-6 0,0 8,14 8,14 0,0 -16,-8 -16,-8 0,0 4,8 4,8 -7,-1 -19,-8 -19.99998,-15 -1,-2 0,-3 0,-5 -17,6 1.99998,26 7.99998,33 2,2 5,6 5,9 -1,4 -7,0 -10,1 -2,0 -2.99998,1 -4.99998,2 1,2 2.99998,5 2.99998,7 0,2 -1.99998,4 -1.99998,7 1.99998,4 12.99998,8 16.99998,9 -3,-4 -4,-4 -7,-7 -6,-6 -1,-9 3,-8 2,1 6,4 8,5 6,4 10,4 13,7 4,3 4,9 -1,12 0,0 0,9 0,9 0,0 1,12 1,12 -5,-2 -9,-7 -15,-7 -2,0 -6,0 -6,3 0,4 11,8 5,13 -5,5 -8,-3 -17.99998,0 0,0 8.99998,21 8.99998,21 0,0 3,15 3,15 0,0 11,27 11,27 2,-1 5,-4 8,-4 3,-1 8,1 11,3 5,1 10,2 15,2 10,0 11,-2 22,0 0,0 17,6 17,6 2,0 4,-1 6,-2 3,0 4,0 7,-1 9,-3 24,-16 30,-23 6,-8 11,-14 11,-24 -10,-3 3,-6 2,-16 0,0 -17,4 -17,4 -2,0 -5,0 -6,-2 -1,-4 3,-4 0,-11 -1,0 -3,1 -4,1 -9,-1 -3,-15 -7,-20 -4,-6 -16,-5 -13,-11 1,-2 4,-4 4,-6 1,-3 -1,-6 0,-9 0,-3 2,-5 2,-8 0,-2 -3,-7 -5,-10 -1,-4 -2,-9 -3,-13 -6,1 -10,5 -14,4 -3,0 -4,-3 -5,-5 -3,-5 -8,-10 -4,-16 4,-8 14,-10 20,-17 0,0 -12,1 -12,1 0,0 -8,-5 -8,-5 0,0 -21,-2 -21,-2 0,0 -21,3 -21,3 0,0 -11,5 -11,5 z"
         id="territory-aeg"
         data-territory="aeg" />
      <path
         class="territory territory-water"
         d="m 1102,1331.25 c -8,10 -16,8 -27,9 -5,1 -9,3 -14,1 -5,-1 -8,-3 -18,-5 0,0 -18,-2 -18,-2 0,0 0,18 0,18 0,0 355,0 355,0 0,0 0,-12 0,-12 0,0 -3,-30 -3,-30 0,0 -3,-24 -3,-24 0,0 -5,1 -5,1 0,0 0,-22 0,-22 0,0 -4,-8 -4,-8 0,0 5,-12 5,-12 0,0 0,-11 0,-11 -8,4 -7,13 -14,15 -7,3 -15,-7 -24,-1 -4,3 -10,13 -15,19 -7,7 -24,13 -34,12 -7,0 -12,-4 -18,-7 -10,-6 -19,-12 -31,-12 -2,0 -5,0 -6,0 -11,3 -6,15 -11,22 -2,3 -12,6 -16,7 -6,1 -13,-1 -18,-5 0,0 -7,-8 -7,-8 -2,-1 -7,-1 -10,-2 -3,0 -6,-2 -9,-1 -6,2 -4,10 -9,21 -8,13 -18,23 -31,31 -5,2 -9,6 -15,6 z m 232,-46 c -2,7 -6,8 -9,14 -2,5 1,8 -1,11 -1,2 -3,2 -6,5 -5,3 -7,8 -16,12 -9,5 -21,6 -27,-4 -1,-2 -2,-5 -2,-7 -1,-6 6,-4 12,-9 4,-3 3,-5 7,-7 0,0 23,-5 23,-5 7,-3 11,-8 19,-10 z"
         id="territory-eas"
         data-territory="eas" />
      <path
         class="territory territory-water"
         d="m 1146,1108.25 c 2,3 8,7 9,9 2,5 -5,6 -8,7 -15,3 -22,3 -35,14 0,0 -17,16 -17,16 -3,3 -5,6 -10,4 -5,6 -6,7 -2,14 6,-6 19,-20 26,-24 7,-3 13,3 24,0 6,-2 7,-5 12,-7 0,0 10,-4 10,-4 0,0 9,-4 9,-4 0,0 9,-3 9,-3 -4,-2 -9,-1 -12,-4 -4,-4 0,-10 8,-11 -5,-11 -13,-14 -23,-7 z"
      />
      <path
         class="territory territory-water"
         d="m 1368,857.25 c 0,0 -24,15 -24,15 0,0 -35,17 -35,17 0,0 -28,23 -28,23 0,0 -21,10 -21,10 0,0 12,7 12,7 7,5 14,13 22,14 9,1 17,-16 25,-3 2,4 2,8 -1,11 -5,4 -13,2 -17,4 -3,2 -4,5.00001 -7,7.00001 -4,3 -7,3 -10,5 -3,2 -8,9 -11,12 -4,4 -8,7 -14,5 -4,-3 -7,-6 -8,-11 0,-3 1,-8 -1,-11 -3,-4 -10,-4 -14,-6.00001 -3,-1 -6,-3 -6,-6 1,-5 6,-10 10,-13 2,-2 6,-3 7,-6 1,-3 -1,-5 -4,-5 -6,0 -17,7 -28,4 -9,-3 -8,-8 -15,-11 3,-5 7,-5 13,-6 -2,-1 -2,-2 -4,-3 -7,-1 -22,4 -27,8 -4,4 -6,9 -9,11 -3,1 -6,-1 -9,-2 2,3 5,7 5,10 0,4 -3,8 -5,11 -2,4 -4,10.00001 -5,15.00001 -2,7 -1,14 -4,20 -4,8 -10,8 -13,17.99999 0,0 -5,34 -5,34 -3,6 -7,4 -10,8 -4,5 -2,12 -4,17 0,0 -3,11 -3,11 0,4 3,7 5,10 0,0 10,17 10,17 1,2 3,6 6,7 4,1 7,-3 12,-5 11,-2 15,6 20,14 0,0 25,-5 25,-5 6,-1 14,-1 19,-4 0,0 23,-23 23,-23 11,-9 21,-13 35,-16 0,0 24,-4 24,-4 5,-1 6,-4 10,-4 8,-1 11,14 18,11 1,-1 3,-2 4,-3 1,-1 3,-3 4,-4 0,0 15,10 15,10 0,0 1,-5 1,-5 8,4 17,8 26,9 3,0 5,-1 8,-1 16,-1 20,-3 35,-8 18,-6 15,-1 33,-13 15,-11 32,-27 18,-46 -3,-4 -8,-9.99999 -13,-11.99999 -8,-4 -20,-3 -30,-7 -10,-5 -19,-13 -29,-19 -9,-5 -18,-9 -28,-12 0,0 -17,-4.00001 -17,-4.00001 0,0 -13,-5 -13,-5 -5,-1 -10,-2 -13,-7 -2,-2 -3,-6 0,-8 4,-1 9,3 13,1 4,-2 3,-8 4,-12 2,-10 8,-19 9,-29 -2,0 -5,0 -7,0 -5,-1 -9,-6 -5,-11 0,0 21,-16 21,-16 3,-2 6,-5 5,-10 z"
         id="territory-bla"
         data-territory="bla" />
  </g>
  <g id="units"></g>
</svg>
